<svg width="84" height="23" viewBox="0 0 84 23" fill="none" xmlns="http://www.w3.org/2000/svg">
<path d="M0.810938 11.41C0.810938 9.87 1.09094 8.44 1.65094 7.12C2.23094 5.78 3.00094 4.63 3.96094 3.67C4.94094 2.69 6.09094 1.93 7.41094 1.39C8.73094 0.829999 10.1509 0.559999 11.6709 0.579999C13.1309 0.599998 14.5009 0.879998 15.7809 1.42C17.0609 1.94 18.1809 2.67 19.1409 3.61C19.3009 3.77 19.3109 3.93 19.1709 4.09L17.2509 6.58C17.1909 6.68 17.1009 6.74 16.9809 6.76C16.8809 6.76 16.7909 6.71 16.7109 6.61C16.0709 5.87 15.3009 5.28 14.4009 4.84C13.5009 4.4 12.5409 4.19 11.5209 4.21C10.5809 4.21 9.69094 4.41 8.85094 4.81C8.01094 5.21 7.28094 5.74 6.66094 6.4C6.04094 7.06 5.55094 7.84 5.19094 8.74C4.83094 9.62 4.65094 10.56 4.65094 11.56C4.65094 12.54 4.84094 13.47 5.22094 14.35C5.60094 15.23 6.11094 16 6.75094 16.66C7.39094 17.32 8.13094 17.84 8.97094 18.22C9.81094 18.6 10.7109 18.79 11.6709 18.79C12.4509 18.77 13.1909 18.62 13.8909 18.34C14.6109 18.06 15.2609 17.68 15.8409 17.2C16.4409 16.72 16.9509 16.16 17.3709 15.52C17.7909 14.86 18.1009 14.15 18.3009 13.39H12.4509C12.3509 13.39 12.2709 13.35 12.2109 13.27C12.1709 13.17 12.1809 13.07 12.2409 12.97L14.1609 10.15C14.4209 9.79 14.7609 9.61 15.1809 9.61H22.2909C22.3509 9.95 22.3909 10.28 22.4109 10.6C22.4509 10.92 22.4609 11.25 22.4409 11.59C22.4209 13.11 22.1209 14.53 21.5409 15.85C20.9809 17.17 20.2009 18.32 19.2009 19.3C18.2209 20.28 17.0709 21.05 15.7509 21.61C14.4309 22.15 13.0109 22.42 11.4909 22.42C9.99094 22.42 8.58094 22.14 7.26094 21.58C5.96094 21 4.83094 20.22 3.87094 19.24C2.91094 18.24 2.16094 17.07 1.62094 15.73C1.08094 14.39 0.810938 12.95 0.810938 11.41ZM26.0588 0.939999H29.1488C29.2488 0.939999 29.3288 0.979999 29.3888 1.06C29.4688 1.12 29.5088 1.2 29.5088 1.3V14.29C29.5088 14.83 29.5988 15.35 29.7788 15.85C29.9788 16.33 30.2388 16.77 30.5588 17.17C30.8988 17.55 31.2988 17.86 31.7588 18.1C32.2188 18.34 32.7188 18.49 33.2588 18.55C33.8788 18.61 34.4588 18.54 34.9988 18.34C35.5588 18.14 36.0388 17.85 36.4388 17.47C36.8588 17.09 37.1888 16.64 37.4288 16.12C37.6688 15.58 37.7888 15.01 37.7888 14.41V1.3C37.7888 1.2 37.8288 1.12 37.9088 1.06C37.9888 0.979999 38.0788 0.939999 38.1788 0.939999H41.2388C41.3388 0.939999 41.4188 0.979999 41.4788 1.06C41.5588 1.12 41.5988 1.2 41.5988 1.3V14.41C41.5988 15.49 41.3888 16.51 40.9688 17.47C40.5688 18.43 40.0188 19.27 39.3188 19.99C38.6188 20.71 37.7888 21.29 36.8288 21.73C35.8888 22.15 34.8788 22.37 33.7988 22.39C32.6788 22.41 31.6288 22.21 30.6488 21.79C29.6688 21.35 28.8088 20.76 28.0688 20.02C27.3288 19.26 26.7488 18.39 26.3288 17.41C25.9088 16.41 25.6987 15.35 25.6987 14.23V1.3C25.6987 1.2 25.7288 1.12 25.7888 1.06C25.8688 0.979999 25.9588 0.939999 26.0588 0.939999ZM45.9185 21.64V1.36C45.9185 1.26 45.9485 1.18 46.0085 1.12C46.0885 1.04 46.1785 0.999999 46.2785 0.999999H49.1285C49.5285 0.999999 49.8585 1.16 50.1185 1.48L60.9185 15.52V1.36C60.9185 1.12 61.0385 0.999999 61.2785 0.999999H64.3685C64.6085 0.999999 64.7285 1.12 64.7285 1.36V21.64C64.7285 21.88 64.6085 22 64.3685 22H61.5185C61.1185 22 60.7885 21.84 60.5285 21.52L49.7585 7.48V21.64C49.7585 21.88 49.6285 22 49.3685 22H46.2785C46.1785 22 46.0885 21.97 46.0085 21.91C45.9485 21.83 45.9185 21.74 45.9185 21.64ZM68.493 7.15C68.493 6.21 68.683 5.34 69.063 4.54C69.463 3.74 69.993 3.05 70.653 2.47C71.333 1.89 72.113 1.43 72.993 1.09C73.893 0.749999 74.843 0.579999 75.843 0.579999C77.403 0.579999 78.753 0.859999 79.893 1.42C81.053 1.96 81.923 2.59 82.503 3.31C82.643 3.49 82.633 3.65 82.473 3.79L80.403 5.95C80.323 6.03 80.223 6.07 80.103 6.07C80.003 6.07 79.913 6.02 79.833 5.92C79.653 5.72 79.423 5.52 79.143 5.32C78.883 5.12 78.573 4.94 78.213 4.78C77.873 4.6 77.503 4.46 77.103 4.36C76.703 4.26 76.293 4.21 75.873 4.21C75.373 4.21 74.913 4.29 74.493 4.45C74.093 4.59 73.753 4.78 73.473 5.02C73.193 5.26 72.973 5.54 72.813 5.86C72.653 6.18 72.573 6.52 72.573 6.88C72.573 7.46 72.763 7.96 73.143 8.38C73.523 8.8 74.093 9.09 74.853 9.25L77.793 9.82C78.753 10 79.593 10.29 80.313 10.69C81.053 11.07 81.663 11.53 82.143 12.07C82.643 12.61 83.023 13.22 83.283 13.9C83.543 14.56 83.673 15.26 83.673 16C83.673 16.8 83.503 17.59 83.163 18.37C82.843 19.15 82.353 19.85 81.693 20.47C81.053 21.09 80.263 21.59 79.323 21.97C78.383 22.33 77.303 22.51 76.083 22.51C75.223 22.51 74.413 22.42 73.653 22.24C72.913 22.06 72.233 21.83 71.613 21.55C71.013 21.25 70.483 20.93 70.023 20.59C69.563 20.23 69.183 19.88 68.883 19.54C68.743 19.4 68.743 19.24 68.883 19.06L70.773 16.63C70.833 16.53 70.913 16.48 71.013 16.48C71.133 16.46 71.233 16.49 71.313 16.57C71.593 16.83 71.903 17.1 72.243 17.38C72.583 17.64 72.953 17.88 73.353 18.1C73.753 18.32 74.183 18.5 74.643 18.64C75.103 18.78 75.593 18.85 76.113 18.85C77.213 18.85 78.053 18.61 78.633 18.13C79.213 17.65 79.503 17.03 79.503 16.27C79.503 15.67 79.283 15.15 78.843 14.71C78.423 14.25 77.793 13.94 76.953 13.78L74.013 13.18C72.333 12.84 70.993 12.15 69.993 11.11C68.993 10.07 68.493 8.75 68.493 7.15Z" fill="#FF8189"/>
</svg>
