<svg width="12" height="12" viewBox="0 0 12 12" fill="none" xmlns="http://www.w3.org/2000/svg">
<g clip-path="url(#clip0_243_173)">
<path d="M9.57242 2.11625C8.85155 1.79115 8.07886 1.55087 7.27083 1.41423C7.26363 1.41285 7.25618 1.41374 7.24951 1.41678C7.24285 1.41982 7.23729 1.42486 7.23361 1.43119C7.13467 1.60505 7.02442 1.83167 6.94715 2.01071C6.09016 1.88267 5.21891 1.88267 4.36193 2.01071C4.27586 1.81229 4.17881 1.61882 4.07122 1.43119C4.06758 1.42478 4.06206 1.41963 4.05541 1.41643C4.04876 1.41323 4.04129 1.41213 4.034 1.41329C3.22644 1.54992 2.45375 1.79021 1.73242 2.11578C1.72621 2.11838 1.72095 2.12282 1.71734 2.1285C0.251107 4.28403 -0.150787 6.38632 0.0466265 8.46222C0.0471759 8.46731 0.0487541 8.47223 0.051265 8.47668C0.053776 8.48114 0.0571672 8.48503 0.0612323 8.48814C0.917033 9.1112 1.87156 9.58584 2.88486 9.89217C2.89192 9.89435 2.89948 9.89434 2.90654 9.89216C2.9136 9.88997 2.91983 9.88571 2.92443 9.87992C3.14211 9.58781 3.33622 9.2792 3.50207 8.95505C3.51196 8.9362 3.50254 8.91359 3.48275 8.90605C3.17839 8.79143 2.88348 8.65311 2.60075 8.49238C2.59567 8.48948 2.59139 8.48536 2.58829 8.4804C2.5852 8.47543 2.58338 8.46978 2.583 8.46394C2.58263 8.45811 2.58371 8.45227 2.58615 8.44695C2.58859 8.44163 2.59231 8.43701 2.59698 8.43348C2.65635 8.38966 2.71571 8.34396 2.77225 8.29826C2.77734 8.29415 2.78347 8.29153 2.78996 8.2907C2.79645 8.28987 2.80304 8.29086 2.809 8.29355C4.65922 9.12466 6.66304 9.12466 8.49159 8.29355C8.49757 8.2907 8.50423 8.28958 8.51081 8.29033C8.51739 8.29108 8.52363 8.29366 8.52881 8.29779C8.58535 8.34396 8.64424 8.38966 8.70408 8.43348C8.70879 8.43693 8.71258 8.4415 8.71509 8.44677C8.71761 8.45204 8.71878 8.45785 8.7185 8.46369C8.71822 8.46952 8.7165 8.4752 8.71349 8.4802C8.71048 8.48521 8.70627 8.48939 8.70125 8.49238C8.4195 8.65445 8.12644 8.79156 7.81878 8.90558C7.81406 8.90729 7.80975 8.91 7.80615 8.91351C7.80256 8.91702 7.79975 8.92126 7.79792 8.92594C7.79609 8.93062 7.79529 8.93564 7.79555 8.94066C7.79582 8.94568 7.79715 8.95059 7.79946 8.95505C7.96908 9.27873 8.16319 9.58687 8.37663 9.87945C8.38106 9.88546 8.38725 9.88995 8.39433 9.89231C8.40141 9.89467 8.40905 9.89478 8.4162 9.89264C9.43123 9.58717 10.3873 9.11231 11.2441 8.48814C11.2482 8.48521 11.2518 8.48143 11.2544 8.47704C11.257 8.47266 11.2586 8.46776 11.2591 8.46269C11.4947 6.06264 10.8643 3.97731 9.58702 2.12944C9.58389 2.12344 9.57871 2.11876 9.57242 2.11625ZM3.77864 7.19812C3.22173 7.19812 2.76236 6.69445 2.76236 6.07677C2.76236 5.45862 3.21278 4.95542 3.77864 4.95542C4.34873 4.95542 4.80387 5.46286 4.79492 6.07677C4.79492 6.69492 4.34449 7.19812 3.77864 7.19812ZM7.53609 7.19812C6.97871 7.19812 6.51981 6.69445 6.51981 6.07677C6.51981 5.45862 6.96976 4.95542 7.53609 4.95542C8.10618 4.95542 8.56132 5.46286 8.55237 6.07677C8.55237 6.69492 8.10666 7.19812 7.53609 7.19812Z" fill="#FF4654"/>
</g>
<defs>
<clipPath id="clip0_243_173">
<rect width="11.3077" height="11.3077" fill="white"/>
</clipPath>
</defs>
</svg>
