<svg width="12" height="12" viewBox="0 0 12 12" fill="none" xmlns="http://www.w3.org/2000/svg">
<g clip-path="url(#clip0_243_169)">
<path d="M11.072 3.06584C11.008 2.83744 10.8833 2.63066 10.7111 2.46748C10.5341 2.29928 10.3172 2.17896 10.0807 2.11788C9.19591 1.88466 5.65094 1.88466 5.65094 1.88466C4.17309 1.86785 2.6956 1.9418 1.22681 2.1061C0.99038 2.17169 0.773825 2.2947 0.596405 2.46418C0.422078 2.63191 0.295809 2.83875 0.229848 3.06537C0.0713953 3.91898 -0.00559168 4.78572 -7.54227e-05 5.65389C-0.00572927 6.52129 0.0710688 7.38774 0.229848 8.24241C0.294396 8.46809 0.420194 8.67399 0.594992 8.84031C0.76979 9.00662 0.987463 9.12677 1.22681 9.19037C2.12341 9.42312 5.65094 9.42312 5.65094 9.42312C7.13068 9.43996 8.61005 9.36601 10.0807 9.20168C10.3172 9.1406 10.5341 9.02029 10.7111 8.85208C10.8855 8.68577 11.0094 8.47893 11.0716 8.25372C11.2342 7.40044 11.3132 6.53334 11.3076 5.66473C11.3198 4.79244 11.2409 3.92125 11.072 3.06537V3.06584ZM4.52394 7.26712V4.04113L7.47337 5.65436L4.52394 7.26712Z" fill="#FF4654"/>
</g>
<defs>
<clipPath id="clip0_243_169">
<rect width="11.3077" height="11.3077" fill="white"/>
</clipPath>
</defs>
</svg>
