<svg width="12" height="12" viewBox="0 0 12 12" fill="none" xmlns="http://www.w3.org/2000/svg">
<g clip-path="url(#clip0_243_176)">
<path fill-rule="evenodd" clip-rule="evenodd" d="M0 5.68541C0 8.49632 2.04151 10.8337 4.71154 11.3077V7.2242H3.29808V5.65385H4.71154V4.39728C4.71154 2.98382 5.62228 2.19887 6.91041 2.19887C7.31843 2.19887 7.75849 2.26154 8.16651 2.3242V3.76923H7.44423C6.75305 3.76923 6.59615 4.11459 6.59615 4.55464V5.65385H8.10385L7.85272 7.2242H6.59615V11.3077C9.26618 10.8337 11.3077 8.49679 11.3077 5.68541C11.3077 2.55837 8.76346 0 5.65385 0C2.54423 0 0 2.55837 0 5.68541Z" fill="#FF4654"/>
</g>
<defs>
<clipPath id="clip0_243_176">
<rect width="11.3077" height="11.3077" fill="white"/>
</clipPath>
</defs>
</svg>
