<svg version="1.1" xmlns="http://www.w3.org/2000/svg" xmlns:xlink="http://www.w3.org/1999/xlink" viewBox="0 0 172 172"><g transform=""><g fill="none" fill-rule="nonzero" stroke="none" stroke-width="1" stroke-linecap="butt" stroke-linejoin="miter" stroke-miterlimit="10" stroke-dasharray="" stroke-dashoffset="0" font-family="none" font-weight="none" font-size="none" text-anchor="none" style="mix-blend-mode: normal"><path d="M0,172v-172h172v172z" fill="none"></path><g fill="#ff0042"><path d="M86,6.88c-43.65844,0 -79.12,35.46156 -79.12,79.12c0,43.65844 35.46156,79.12 79.12,79.12c43.65844,0 79.12,-35.46156 79.12,-79.12c0,-43.65844 -35.46156,-79.12 -79.12,-79.12zM86,13.76c39.93625,0 72.24,32.30375 72.24,72.24c0,39.93625 -32.30375,72.24 -72.24,72.24c-39.93625,0 -72.24,-32.30375 -72.24,-72.24c0,-39.93625 32.30375,-72.24 72.24,-72.24zM61.77219,44.84094c-0.91375,0.01344 -1.78719,0.37625 -2.43219,1.02125c-0.645,0.645 -1.00781,1.51844 -1.00781,2.44563v0.06719c0,0.01344 0,0.01344 0,0.02687l0.29563,75.55906c0,1.23625 0.65844,2.37844 1.73344,2.98313c1.06156,0.61812 2.37844,0.60469 3.44,-0.01344l65.21219,-38.08188c1.06156,-0.61812 1.72,-1.76031 1.70656,-2.98312c0,-1.23625 -0.65844,-2.365 -1.72,-2.98313l-65.50781,-37.57125c-0.52406,-0.29562 -1.11531,-0.45688 -1.72,-0.47031zM65.23906,54.24719l55.16094,31.65875l-54.91906,32.07531zM65.23906,54.24719"></path></g><path d="" fill="none"></path><path d="" fill="none"></path></g></g></svg>