<svg width="172" height="172" fill="none" xmlns="http://www.w3.org/2000/svg"><g clip-path="url(#a)"><path d="M86 6.88C42.342 6.88 6.88 42.342 6.88 86S42.342 165.12 86 165.12s79.12-35.462 79.12-79.12S129.658 6.88 86 6.88Zm0 6.88c39.936 0 72.24 32.304 72.24 72.24 0 39.936-32.304 72.24-72.24 72.24-39.936 0-72.24-32.304-72.24-72.24 0-39.936 32.304-72.24 72.24-72.24ZM61.772 44.84a3.508 3.508 0 0 0-2.432 1.022 3.445 3.445 0 0 0-1.008 2.446v.094l.296 75.559c0 1.236.658 2.378 1.733 2.983a3.423 3.423 0 0 0 3.44-.013l65.212-38.082a3.424 3.424 0 0 0 1.707-2.983 3.447 3.447 0 0 0-1.72-2.984l-65.508-37.57a3.667 3.667 0 0 0-1.72-.471Zm3.467 9.407L120.4 85.906 65.48 117.98l-.24-63.734Z" fill="#FF0042"/></g><defs><clipPath id="a"><path fill="#fff" d="M0 0h172v172H0z"/></clipPath></defs></svg>