<svg width="12" height="12" fill="none" xmlns="http://www.w3.org/2000/svg"><g clip-path="url(#a)"><path d="M11.072 3.066a1.312 1.312 0 0 0-.36-.599 1.437 1.437 0 0 0-.631-.35c-.885-.232-4.43-.232-4.43-.232a36.103 36.103 0 0 0-4.424.221 1.489 1.489 0 0 0-.63.358 1.364 1.364 0 0 0-.367.601A13.55 13.55 0 0 0 0 5.654c-.006.867.071 1.734.23 2.588.064.226.19.432.365.598.175.167.392.287.632.35.896.233 4.424.233 4.424.233a36.22 36.22 0 0 0 4.43-.221 1.44 1.44 0 0 0 .63-.35 1.31 1.31 0 0 0 .36-.598c.163-.854.242-1.72.237-2.59a12.521 12.521 0 0 0-.236-2.599ZM4.524 7.267V4.041l2.95 1.613-2.95 1.613Z" fill="#FF4654"/></g><defs><clipPath id="a"><path fill="#fff" d="M0 0h11.308v11.308H0z"/></clipPath></defs></svg>