<svg width="58" height="45" fill="none" xmlns="http://www.w3.org/2000/svg"><path fill-rule="evenodd" clip-rule="evenodd" d="M35.27 11.25c-1.12 4.286-3.92 6.429-8.398 6.429H0c1.12-3.215 2.8-4.822 5.038-4.822h20.154c-2.24-2.143-4.478-3.214-6.718-3.214h-8.397c1.069-2.046 3.158-3.115 6.267-3.208l1.093-.015C22.25 6.286 26.8 4.616 25.192 0h8.398l23.877 21.325a1.559 1.559 0 0 1 0 2.35L33.59 45h-8.398c1.68-4.821-3.359-6.429-8.397-6.429-3.206 0-5.393-.976-6.559-2.928l-.16-.286h8.398c2.108 0 4.215-.949 6.323-2.847l.395-.367H5.038c-2.141 0-3.771-1.47-4.889-4.411L0 27.322h26.872c4.329 0 7.089 2.002 8.28 6.007l.117.421L47.026 22.5 35.269 11.25Z" fill="#F8F8F8"/></svg>