<svg width="135" height="135" viewBox="0 0 135 135" fill="none" xmlns="http://www.w3.org/2000/svg">
<g clip-path="url(#clip0_15_328)">
<path d="M6.4125 52.2842L7.36875 53.7074C5.45625 53.6511 3.45375 53.4655 3.07125 52.6442C3.07125 52.6049 3.0825 52.5655 3.09375 52.5261C4.1625 52.2449 5.07938 52.228 6.4125 52.2842ZM16.5713 56.6155L17.0325 58.0217L15.9525 58.0667L16.2113 56.6267C16.3315 56.6267 16.4516 56.6267 16.5713 56.6155ZM20.25 66.8811C19.2938 67.7586 18.5569 68.3436 17.9888 69.6767C17.2013 69.0299 16.7906 67.7474 16.5375 66.313C16.2563 64.7492 16.1663 63.0111 15.9525 61.7117L16.02 61.048L17.1281 60.9692L19.9519 66.313L20.25 66.8755V66.8811ZM18.8213 53.7074C18.9615 52.7467 19.1059 51.7867 19.2544 50.8274L19.62 50.8049C19.35 51.7724 19.08 52.7399 18.8213 53.7074ZM18.0506 40.6461L23.1131 42.0186C23.1049 42.0935 23.0974 42.1685 23.0906 42.2436C20.7338 43.9874 18.5569 44.7524 17.3869 47.9024L17.8313 40.8936L18.0506 40.6517V40.6461ZM22.7756 33.3899C22.4494 36.6524 22.9106 38.0924 23.4788 40.1174C24.3788 40.7586 24.7388 41.1467 24.4463 42.0974C22.9275 41.3436 21.3188 40.5561 18.99 40.6799C18.9332 40.6147 18.877 40.5491 18.8213 40.483C19.4738 37.9124 20.745 36.3317 21.7294 34.2955L22.7813 33.3842L22.7756 33.3899ZM30.0544 29.0474L30.2738 29.0305C29.5763 31.438 29.295 36.9899 28.0744 39.1949C25.1888 37.828 25.245 31.9049 28.4738 29.5649L30.0544 29.0474ZM27.3656 46.8786L29.7956 49.5167C28.8394 52.453 27.0338 54.6636 26.2688 58.0667L24.8344 57.9542C23.6081 54.5286 26.6738 48.9486 27.1969 46.4511L29.4469 46.7099C29.7281 47.413 29.9981 48.1161 30.2738 48.8249L27.3656 46.8786ZM34.0144 29.0249C33.7669 31.8767 34.3969 33.3561 34.5656 35.5611C33.1369 36.2924 31.7025 37.0124 30.2738 37.738C30.5391 34.786 31.2464 31.8905 32.3719 29.1486L34.0144 29.0249ZM35.6794 24.6936L36 24.6711L35.5163 26.0605L34.5656 26.1224L35.2969 25.2617L35.6794 24.6936ZM36 37.9967L31.7025 40.6405C31.7925 39.043 33.8288 36.8886 35.5331 36.2924L35.9269 36.5061L36 37.9967ZM38.8688 27.9955C38.6044 29.4692 38.3456 30.9374 38.0925 32.4111L37.2881 32.9174L36.8606 33.3842C36.0844 32.293 35.8875 29.6155 36.0563 27.5792L38.8688 27.9955ZM41.7263 24.6767C41.7263 24.733 41.715 24.778 41.7094 24.823L40.6125 25.8749C39.8813 26.1561 39.7913 26.1449 38.8688 26.1111C38.9869 25.633 39.1219 25.1549 39.2513 24.6767H41.7263ZM44.595 18.8717L43.3125 21.7686L38.8688 21.448L38.8856 21.2117C40.7138 20.368 42.3169 19.3667 44.5894 18.8661L44.595 18.8717ZM42.2775 26.4092L42.75 26.128L43.1606 27.5792L41.7263 27.298L42.2775 26.4036V26.4092ZM46.0238 30.7011C44.3194 31.3649 41.9625 31.1792 40.5956 31.9386C40.4974 31.3572 40.3981 30.7759 40.2975 30.1949L41.1863 29.0305C42.6319 29.593 44.0775 30.1667 45.5175 30.7349L46.0238 30.7011ZM42.3619 33.3111L40.4156 33.3842C40.3706 33.1817 40.3369 32.9792 40.2975 32.7711C41.6644 32.2142 43.9594 32.1636 46.0238 31.933L43.8469 33.1311L42.3619 33.3111ZM47.4525 33.3111C45.8156 33.7217 44.2463 35.1674 43.1719 36.2924C42.9638 34.9761 45.4894 32.6586 46.6988 31.933C47.2331 32.4111 47.2894 32.3605 47.4525 33.3111ZM50.3212 15.9692L50.2988 16.1942L48.5775 17.2349L46.0238 17.4205L46.0463 17.1955L50.3212 15.9692ZM48.0038 20.323L47.4525 19.5074C48.7463 18.4217 51.5981 19.018 53.1844 19.1811L48.0038 20.323ZM60.8175 16.048C63.2081 16.2449 65.3962 16.8074 67.0613 17.848L67.5 17.8199L67.2356 18.1911L64.9463 18.8661C63.5681 18.6749 62.19 18.4724 60.8175 18.2755L51.75 16.9874L51.7725 16.8017C54.7327 16.0987 57.782 15.8465 60.8175 16.0536V16.048ZM70.3406 15.283L69.8344 15.9692C68.4618 15.871 67.1496 15.3658 66.0656 14.518L70.3631 15.0636L70.3406 15.283ZM77.9681 20.6492L79.155 20.1992L80.3869 21.2567C80.2181 22.4661 79.0538 23.4561 78.1594 24.6317L77.4731 24.6767C75.6056 21.583 73.2488 18.2024 69.1144 17.0099L68.9344 16.6442L70.605 15.9692C73.4119 16.948 75.7519 18.433 78.3563 19.288C78.6938 20.1036 78.5869 19.828 77.9625 20.6492H77.9681ZM81.4219 27.5286L81.0956 27.208L80.3869 27.2586L81.5681 26.1336L81.4219 27.5286ZM82.6875 43.5486C84.6225 45.2249 85.1175 47.6549 84.3131 50.8049C83.4806 48.9374 82.6538 47.0642 81.8156 45.1967C82.0969 44.7805 82.3613 44.3642 82.6369 43.948C82.6538 43.813 82.665 43.678 82.6875 43.5486ZM83.25 30.4986L83.2275 30.7686L82.2094 31.933L81.8156 31.1624C82.4288 30.0655 81.9844 30.6561 82.7888 30.5436L83.25 30.4986ZM84.4425 30.4817L88.9763 32.1636C88.969 32.3141 88.9558 32.4642 88.9369 32.6136C88.5544 32.878 88.1719 33.1311 87.7894 33.3842L83.25 31.708L83.2894 31.2524L84.4425 30.4817ZM93.2738 36.2924L90.7594 34.6217L90.4106 33.9467C91.5019 33.2717 91.3444 33.3055 92.4975 33.5305C92.7506 34.453 93.015 35.3755 93.2738 36.2924ZM94.7025 35.7411L94.1963 36.2924C93.5888 35.9774 93.4819 35.578 93.2738 34.8355L94.5844 35.4092L94.7025 35.7411ZM93.6338 31.5842L93.2738 31.6124C93.6675 31.2355 94.0613 30.8586 94.4663 30.4874C94.185 30.853 93.9038 31.2186 93.6338 31.5842ZM100.434 38.8855L99.7313 39.1949C98.4532 38.4789 97.1763 37.7608 95.9006 37.0405C95.5003 36.4975 95.1009 35.9537 94.7025 35.4092C96.6881 33.9467 96.7613 35.6455 98.6344 36.5736L100.434 38.8855ZM101.863 40.168L100.434 39.6449L101.295 39.1949L101.863 40.168ZM100.119 42.508C100.637 43.5486 100.637 43.2561 101.863 43.0986L99.6638 44.9999L97.5656 40.9949L97.5938 40.7474C99.1406 40.4155 99.6356 40.9724 101.149 41.1974L101.728 42.1311L100.119 42.508ZM100.434 45.1124L103.298 43.5486C102.724 44.8424 101.976 45.5061 101.093 46.4511L100.434 45.1124ZM106.161 50.653C105.384 51.3224 104.878 51.5361 103.41 51.6599L104.591 51.7892L104.569 51.9974L100.536 53.7074L100.434 48.5324L103.213 45.2417L103.719 44.9999L106.161 50.653ZM104.726 42.7105C112.635 40.5055 111.105 44.7017 107.578 47.9024C106.622 46.1755 105.671 44.443 104.726 42.7105ZM111.887 43.5486C108.973 57.2399 108.411 57.988 98.1056 63.8717C97.9328 63.5952 97.7528 63.3232 97.5656 63.0561L97.9313 61.5261C104.653 59.6136 108.473 56.0924 108.073 48.1217L111.443 43.7905L111.887 43.5486ZM112.236 43.5486C112.123 43.0761 112.011 42.6036 111.887 42.1311L112.956 42.0974L112.236 43.5486ZM94.7025 56.863L94.8038 55.3499L94.8938 54.0561L95.8838 53.7242C95.9344 53.7242 95.9794 53.713 96.0244 53.7074C96.3056 55.423 96.0244 56.6886 95.4619 58.0667C94.9781 57.7574 94.8825 57.628 94.7025 56.863ZM88.9763 69.5642L88.9988 69.3111L90.8775 64.8167L91.2713 63.8717L94.5788 64.0967C94.6294 64.3442 94.6631 64.5861 94.68 64.8167C94.8263 66.5267 94.2356 67.8936 93.6281 69.6767L88.9763 69.5642ZM90.4106 75.3917L90.45 73.1417L90.5063 72.5792L92.925 72.7592L93.2738 72.7311C92.7169 73.648 92.1656 74.5649 91.62 75.4874L90.4106 75.3917ZM88.9931 65.998L89.1394 65.9249L90.2813 65.3342L90.4106 65.323L90.2419 65.9249L89.5725 68.2255L88.9763 66.178L88.9931 65.998ZM86.76 73.2261L86.1131 72.5792C86.7431 73.018 86.3325 72.5905 86.76 73.2261ZM83.25 71.4992C84.0544 70.993 84.9263 71.1505 86.1188 71.1617L85.7644 72.3261C84.78 72.7199 84.6394 72.5736 83.5313 72.4555L83.25 71.4992ZM85.005 76.933L86.1131 79.5542C85.2581 80.1336 84.3975 80.7074 83.5425 81.2924C82.7775 80.2405 83.61 77.2986 85.005 76.933ZM82.1756 67.8205L81.8156 67.8486L82.2881 66.7742L82.1756 67.8205ZM86.2988 68.2255L86.1131 68.1074L86.7431 66.7799L86.9513 66.7742L87.5475 68.1692L86.2988 68.2255ZM96.2156 49.3536L96.1369 48.8642C96.5138 48.403 96.7556 48.1161 97.4025 47.908L97.5713 48.763C97.29 48.9486 97.0088 49.1286 96.7331 49.3199L96.2156 49.3536ZM96.1369 52.8974C95.8781 53.2405 95.4169 53.4317 95.0906 53.7074L94.7025 46.4511L96.1369 52.8974ZM93.51 62.6286C94.455 62.0999 94.59 62.5892 94.7025 63.8661H91.8394L91.89 63.4161L93.51 62.6286ZM92.1038 58.618L92.7506 58.0667L93.2738 59.0005L93.0319 59.518L91.8394 59.3774L92.1038 58.618ZM91.8394 62.4655L90.3488 63.8717L89.3756 63.7086L88.9819 63.748C89.2069 63.3036 89.4431 62.8592 89.6738 62.4205L91.8394 62.4655ZM86.4394 61.6386C85.8431 61.2224 86.2706 61.2786 86.1581 60.9636L86.4394 61.6386ZM90.9506 55.1586L86.1131 52.6499C86.3381 49.3311 86.7431 45.5174 86.4169 42.0974C90.1462 43.4474 93.4931 49.5167 90.9506 55.1586ZM87.5475 55.1586C88.7344 55.7886 88.6725 56.3624 90.3206 56.8686C90.6075 57.943 90.1687 58.3705 89.4825 59.5124L87.7275 59.4449C87.3675 57.5324 87.7612 56.4355 87.5475 55.1586ZM87.8738 64.5467C87.2719 64.1305 87.705 64.1867 87.5925 63.8717L87.8738 64.5467ZM97.5656 50.5742L97.5825 50.3042L98.8763 49.3536C99.1013 50.8386 99.0169 53.3136 98.6794 55.1586C97.9144 54.5624 97.7738 52.0424 97.5656 50.5742ZM97.5656 55.1586C97.8581 54.6749 98.1506 54.1911 98.4319 53.7074L97.9256 55.1361L97.5656 55.1586ZM105.919 50.8217L106.161 50.8049C106.228 56.368 102.797 57.3805 98.2856 59.4674L97.5656 59.518L100.378 53.6905L105.919 50.8217ZM97.425 39.9542C97.47 40.1005 97.5206 40.2411 97.56 40.3874L97.2056 40.6461L96.1313 39.1949L97.425 39.9542ZM96.1313 42.373L96.1706 42.1199C96.2756 42.1115 96.3806 42.104 96.4856 42.0974L97.5656 43.5486C96.7331 43.1549 96.5981 43.0592 96.1313 42.373ZM97.56 46.0855L95.6306 47.9024L91.485 41.8836L86.1075 37.2149L87.2888 36.2924C89.8931 37.4174 94.4494 39.5605 95.3663 42.238C95.6644 43.1099 94.635 43.8299 95.3325 44.5555C96.165 45.4217 96.9975 44.803 97.5656 46.0799L97.56 46.0855ZM85.4775 55.1586L85.9163 55.333L86.1075 59.518L85.4381 59.3605C84.8081 58.8936 84.3694 56.7336 84.9431 55.7942L85.4775 55.1586ZM82.305 62.4374L82.7662 62.4205L83.2444 63.5567L82.5131 63.838L81.81 63.8717C81.9787 63.3936 82.1475 62.9155 82.305 62.4374ZM81 85.6461L80.3813 83.5255C81.2644 83.2724 82.1419 83.0192 83.025 82.7549L83.25 82.7436C83.2384 82.8089 83.2291 82.8746 83.2219 82.9405L81 85.6461ZM78.9469 79.8411C79.2113 78.9861 79.3969 78.8567 79.875 78.3842L80.2688 78.5417L80.3813 78.913L79.4981 79.7792L78.9469 79.8355V79.8411ZM79.6219 81.2924L78.9469 80.5499L80.3813 79.8411L80.01 81.2642L79.6219 81.2924ZM78.1144 87.8736C77.9119 87.7161 77.7206 87.553 77.5181 87.3842L77.9569 87.3561L80.1675 85.6461L80.3813 87.3899L78.6881 88.5486L78.1144 87.8736ZM78.2269 104.501C74.7788 104.647 72.7144 103.77 69.9019 103.522L66.6788 97.1492L66.06 96.508C71.4713 95.8667 74.8744 93.2567 78.885 91.4511C80.3025 92.8011 83.5144 99.6748 80.685 102.718C80.01 103.759 79.2563 103.865 78.2269 104.501ZM63.4219 97.3405L64.7156 97.2561C66.6675 98.5667 67.995 100.912 68.9288 103.067L63.1969 101.407C63.6244 99.9561 63.8044 98.4823 63.4219 97.3405ZM59.3044 91.8617L65.7619 89.9998L75.9094 90.9899L76.0894 91.5017C73.0688 92.863 69.6319 94.0105 66.1669 95.7655C62.415 96.0636 61.5094 94.663 58.9106 93.7405L59.3044 91.8617ZM58.905 98.7017L59.0344 97.4417L61.5038 97.2561C61.7063 98.353 61.92 98.9661 61.6163 100.159L58.905 98.6961V98.7017ZM56.0363 100.974L56.9981 100.445C58.1794 99.6636 59.0625 100.704 60.3338 101.115L59.8275 101.61L56.0363 100.974ZM58.8206 98.7074C58.5086 98.5685 58.1973 98.4279 57.8869 98.2855L57.4706 97.2561L58.905 97.3461L58.8206 98.7074ZM54.6075 98.7074L56.0419 99.9392C56.0419 100.699 55.9744 100.614 55.8 101.61L54.6075 98.7074ZM50.895 93.268C52.2394 92.8573 54.0281 92.9473 56.0419 92.9024L54.1687 94.3536L50.3156 93.9767L50.895 93.268ZM47.4525 20.5199C50.1131 17.9774 56.7844 18.7367 58.455 20.3511L58.905 20.3117C56.6831 22.3874 53.2406 22.6236 51.1256 24.6767C49.4662 23.5742 48.0938 22.8655 47.4525 20.5199ZM62.0775 24.6767L63.2025 25.9536C62.2013 26.0099 61.1494 26.0717 60.0975 26.1617C57.7294 26.3642 55.3894 26.7186 53.7525 27.568L53.5388 27.5792C53.4204 27.3937 53.3023 27.2081 53.1844 27.0224C55.8713 25.6129 58.8377 24.8175 61.8694 24.6936L62.0775 24.6767ZM67.6575 17.4205C69.5081 19.2767 72.27 20.3792 73.2263 23.2255C69.345 21.4199 63.3712 21.448 60.345 18.5736C63.0112 19.1417 65.2838 18.928 67.6575 17.4205ZM68.9344 27.5792L74.2444 28.3105L74.6606 28.2767L70.4025 31.933C69.7275 30.5886 69.57 28.7661 68.9344 27.5792ZM75.7575 33.7892L74.6606 33.6205L76.0894 33.3842L75.7519 33.7892H75.7575ZM74.6606 30.3186L75.9712 29.0305L76.0894 30.4817L75.1388 30.2736L74.6606 30.3186ZM77.2594 78.3561L76.6294 78.3842L76.0894 77.878L76.5056 77.3324L77.5181 76.9386L77.2594 78.3561ZM76.1175 81.0111C76.2863 80.8086 76.4662 80.6061 76.6462 80.4036L76.6912 79.8411L77.5238 81.163L76.0894 81.2924L76.1175 81.0111ZM75.5494 85.6461L74.6606 84.5774L77.5238 84.1949L76.1569 85.6011L75.5494 85.6461ZM76.0894 89.9998L73.2263 89.6567L75.2513 88.5486L76.0894 89.9998ZM74.0813 85.9049L74.6606 86.4561L72.585 86.9848L70.3631 87.0974L73.4569 85.6461L74.0813 85.9049ZM66.0713 23.2255C67.7419 23.2705 69.5081 23.6924 70.3631 24.6767C69.21 24.5642 67.1344 24.7499 66.6112 23.8611L66.0713 23.2255ZM67.5225 29.0305C68.3381 29.7449 68.625 30.5886 68.4788 31.933C67.2188 31.4999 67.545 30.1217 67.5225 29.0305ZM68.9288 38.1824L68.9794 37.9349C71.8312 37.3161 72.4444 38.3061 71.145 39.1949C70.02 39.0374 69.5081 38.6155 68.9288 38.1824ZM72.6019 75.4817L73.2263 75.6392C73.2179 75.7066 73.2104 75.7741 73.2038 75.8417L71.7975 76.933L72.3825 75.4986L72.6019 75.4817ZM71.8144 40.078L72.8831 39.1949L73.2263 40.6461L71.7975 40.3311L71.8087 40.078H71.8144ZM76.0894 78.8905L72.63 79.7961L71.7975 79.8355C71.7975 79.7905 71.8088 79.7399 71.82 79.6949C73.1138 79.4361 73.9463 79.0086 74.7113 78.3842L75.9262 78.6092L76.0894 78.8905ZM73.62 75.4817L73.2263 74.6774L74.2106 74.0305L74.6606 74.2724L74.0981 75.4424L73.62 75.4817ZM64.6369 85.5224L66.3412 84.1949L71.6175 84.6449L71.7975 85.0386L68.2312 87.0974C66.9094 86.878 65.7675 86.293 65.0813 85.4886L64.6369 85.5224ZM61.9875 85.6461L64.6313 87.0974L60.3394 86.338C60.8906 86.113 61.4363 85.8767 61.9875 85.6461ZM61.7738 88.6105C61.7676 88.7267 61.762 88.8429 61.7569 88.9592L60.9413 89.4092L60.3394 89.488L60.3619 89.1392C60.9862 88.3124 60.8794 88.588 61.7681 88.6105H61.7738ZM55.0238 29.5311C54.8882 29.3855 54.7513 29.2411 54.6131 29.098C56.0363 28.3217 58.2806 27.9505 60.4856 27.7761C62.3025 27.6242 64.0913 27.6074 65.3738 27.5792L66.0713 31.933C64.1981 31.7305 62.415 31.483 60.4856 31.3986C58.8185 31.316 57.1474 31.3762 55.4906 31.5786C55.3381 30.8954 55.1825 30.2129 55.0238 29.5311ZM57.1275 87.778L57.4763 88.3967L57.1388 89.6961L53.1844 89.9998C53.6063 88.7061 54.2362 88.0817 54.9169 87.0974L57.1275 87.778ZM52.245 82.7436C50.445 82.6424 47.9813 81.3261 47.4525 79.8411L53.1844 81.298L52.245 82.7436ZM54.2588 82.6649L53.1844 82.7436L53.2181 82.3949L54.4106 81.2924C54.3544 81.748 54.3094 82.2036 54.2588 82.6649ZM50.3212 29.5817L52.065 29.0305L53.1844 30.4367L52.0031 30.4817L50.3212 29.5817ZM50.2988 91.9067C50.2031 92.2217 50.1187 92.5424 50.0287 92.863C49.8895 92.8703 49.7506 92.8834 49.6125 92.9024C49.3714 92.4182 49.1295 91.9345 48.8869 91.4511L50.3212 91.5974L50.2988 91.9067ZM51.0919 85.6461L54.4331 86.3211L54.6131 86.7711L52.02 89.9998L48.8869 89.5386L51.0919 85.6461ZM76.0894 40.1511L76.7363 39.2005L76.9725 39.1949L78.7725 39.6449L78.9525 39.9036L76.9444 40.6461C76.6597 40.4805 76.3747 40.3155 76.0894 40.1511ZM79.965 35.4599L78.9525 34.8411C79.9819 35.218 79.3913 34.7905 79.965 35.4599ZM79.6388 42.0974L78.9525 41.5124L80.3869 40.6461L79.6388 42.0974ZM78.9525 52.2561L81.18 52.8074C81.7819 53.0436 81.765 53.1055 81.8156 53.7074C80.8594 53.3417 79.2619 53.0886 78.9525 52.2561ZM79.1775 48.3017L79.4812 47.908L80.3869 49.3536L78.9525 49.0724L79.1775 48.3017ZM50.1694 96.0636L50.3212 96.4461L48.3919 97.183L47.4525 97.2561L47.475 97.0592L48.1331 96.0298C49.0444 95.608 49.0669 95.8836 50.1694 96.0636ZM46.0238 23.2199C47.2725 24.1536 47.5988 25.3011 47.4019 29.0305C46.5806 27.9786 46.08 25.7455 46.0238 23.2255V23.2199ZM46.845 20.323L46.7438 21.3749L46.0294 21.4255L46.8506 20.323H46.845ZM46.0238 21.7742C45.9844 22.123 45.9563 22.4717 45.9113 22.8205L44.5894 22.5786L45.6806 21.7967L46.0181 21.7742H46.0238ZM46.0238 105.969L46.7325 98.578L51.75 97.2561L46.4738 105.699L46.0238 105.969ZM46.3781 86.1017L47.1488 85.6461C47.8519 86.4786 47.2219 87.6767 46.5581 88.5486C46.0069 88.0311 45.945 87.7049 46.0913 86.5292L46.3781 86.1017ZM41.7263 85.393L43.3744 82.7436L46.0181 84.2961C45.1181 85.7136 44.2013 87.1311 43.29 88.5486C42.4688 87.8174 41.9625 86.743 41.7263 85.3986V85.393ZM41.7263 96.7611L44.37 94.3536L45.6131 94.4661L46.0238 95.1411C45.9113 95.8498 45.81 96.553 45.7088 97.2561L41.7263 96.7611ZM37.4344 94.7923L40.5844 92.9024L42.9806 93.2792L43.1606 93.6111L40.635 95.8048C39.375 95.6755 38.5369 95.338 37.8788 94.7642L37.4288 94.7923H37.4344ZM37.0125 91.9855L38.1656 91.4511L38.6606 91.558L38.8631 91.7942L35.5275 92.9024L34.5713 92.5648L37.0125 91.9855ZM33.1369 90.6242L33.9806 88.5824C35.5444 88.3799 35.9156 89.1505 37.0913 89.6399L37.4288 90.1573L35.6794 91.3555L34.2563 91.4511L33.1369 90.6242ZM30.2681 96.5811L32.355 92.9024C33.7388 92.9024 33.9075 93.0148 34.4756 93.7461C34.7288 94.1736 34.5094 93.943 33.9581 94.0386L33.8288 95.3042L36 95.6417C35.5725 96.7048 35.505 96.5642 34.8638 97.2392C32.7263 97.3517 31.7588 96.9467 30.2681 96.5811ZM27.8606 91.4511L31.5 92.548L31.7025 92.9811L29.3681 95.8048L25.9763 94.6911L27.8606 91.4511ZM13.8375 87.5249L13.8825 87.0917L15.9131 88.6555L16.0875 89.0717C11.8631 92.3342 18.3263 102.965 25.6781 96.0748L28.8394 97.3461C27.6244 99.5117 25.5375 100.367 23.3381 101.593C18.0788 102.032 10.7213 93.4424 13.8375 87.5249ZM18.7425 89.0099L18.8213 89.9942C18.4275 89.6961 18.0338 89.4092 17.6513 89.1111L17.3869 88.543L18.7425 89.0099ZM25.9763 95.1749L23.3606 97.1999C18.2081 97.7399 16.1213 94.1736 15.9525 89.7917L16.9594 88.5767L17.3981 88.543C19.9913 90.5849 22.2863 93.7011 25.8075 94.7305L25.9763 95.1749ZM20.9869 74.0249C20.52 73.6874 20.4919 73.5186 20.2556 72.9449L21.2344 69.2211L22.3763 68.2199L23.1131 69.2999L20.9869 74.0249ZM20.2556 75.2792L22.5113 69.9411L22.9725 69.6711C24.0131 71.5049 25.5206 72.3374 25.9763 74.8292L22.5788 78.3786C21.5223 77.5916 20.714 76.5178 20.25 75.2849L20.2556 75.2792ZM24.5475 79.723L27.4163 76.9274L28.8394 79.8355C27.4089 79.7923 25.9783 79.7548 24.5475 79.723ZM31.7025 50.3886C30.3469 53.2855 28.5413 55.2542 27.4613 58.0611C26.9888 55.513 29.835 51.8511 30.7519 49.6011L31.1906 49.348L31.7025 50.3886ZM31.7025 42.4011C33.8344 41.743 35.2631 40.5392 36.7875 39.1892L37.4344 41.1242L35.6231 43.543L31.7025 42.4011ZM38.8631 42.553L38.0869 43.543L37.4344 43.4305L37.4456 43.273L38.7506 42.0917L38.8631 42.553ZM37.7381 36.298L37.9631 36.2867L38.8631 38.1824L38.5256 39.1892C37.215 38.503 37.2656 37.6874 37.7381 36.298ZM37.4681 78.3786L38.79 79.3292L37.4344 78.733C37.442 78.6145 37.4532 78.4964 37.4681 78.3786ZM37.4456 79.8355L38.8631 80.4486C38.8547 80.5047 38.8472 80.561 38.8406 80.6174L35.8031 82.738C34.9313 82.3442 34.8244 81.5624 34.5656 80.713L34.5938 80.533L37.4456 79.8355ZM33.21 76.9274L34.5713 77.4786L33.84 77.9005L33.1369 77.9792L33.21 76.9274ZM33.1369 47.9024C34.8581 48.3861 34.3125 48.0599 34.3856 49.348C33.5981 48.8867 33.5419 48.673 33.1369 47.9024ZM33.1369 73.828L33.255 72.5736C33.9244 73.0405 34.155 73.3161 34.5713 74.0249C34.0933 73.9582 33.6151 73.8926 33.1369 73.828ZM36.0056 55.6986C35.4656 56.3905 35.4881 56.2049 34.5713 56.6042L35.1956 55.153L36.0056 55.6986ZM36.0056 49.8599L35.1056 50.7992C34.2056 50.293 34.6275 50.4955 35.0325 49.5561L35.5669 49.348L36.0056 49.8599ZM35.8875 47.3905L34.5713 46.4455C35.5838 46.8336 35.3475 46.5974 35.8875 47.3905ZM33.1369 74.0249L34.5713 75.1667C33.84 75.1499 33.4463 74.9924 33.1369 74.0249ZM37.4344 73.9686L36.8494 74.0249L36.3488 73.1024L36 72.6524L36.7763 72.5736C36.9956 73.0405 37.2094 73.5074 37.4344 73.9686ZM36.6469 47.0924L36 46.4511C36.63 46.8899 36.2138 46.4624 36.6413 47.098L36.6469 47.0924ZM36.7313 70.9986L36 69.4799L36.3094 68.2311L36.4894 68.2199L37.4344 71.1224C37.2001 71.0807 36.9657 71.0395 36.7313 70.9986ZM32.9794 87.8905L33.1369 88.0817L32.625 89.9998C32.0226 89.7498 31.4921 89.3534 31.0815 88.8466C30.6709 88.3398 30.3933 87.7386 30.2738 87.0974L32.9794 87.8961V87.8905ZM28.8394 89.9998L30.2738 91.2711C29.3569 90.8661 29.3006 90.883 28.8394 89.9998ZM31.3144 77.1299L31.4831 78.3842L30.2738 76.933L31.3144 77.1299ZM29.8969 83.9192L28.8394 81.2924C30.0938 81.7705 31.0725 83.2049 31.7081 84.1949L29.8969 83.9192ZM31.0219 58.078L31.3763 58.0667L30.33 59.518C30.1613 59.158 30.3694 58.8149 30.9488 58.393L31.0219 58.078ZM30.2738 70.5542L29.9869 71.128L29.1656 70.4924C29.0567 70.2618 28.948 70.0312 28.8394 69.8005L29.9644 69.6767L30.2738 70.5542ZM20.25 82.7436C23.1188 84.6111 27.9956 86.3436 28.8394 89.9998C25.4381 88.3013 22.4929 85.8132 20.25 82.7436ZM27.6919 81.3374L28.8394 82.7436L25.9763 81.2924L27.6919 81.3374ZM38.1769 85.6461L36 83.4524L39.8081 79.8411L40.2975 83.818L38.1769 85.6461ZM40.2975 88.0705L40.6744 87.1255L41.1806 87.0974L41.7263 88.5486L40.2975 88.0705ZM42.2269 82.7436L41.7263 81.2924L42.7669 81.4836L42.2269 82.7436ZM40.2975 33.8624L40.3088 33.733C40.7813 33.6205 41.2538 33.508 41.7263 33.3842L40.7363 34.8355L40.2975 33.8624ZM25.8581 63.8717L24.5475 60.9692C26.2294 61.3349 25.9538 62.533 25.8581 63.8717ZM22.3538 65.323C21.1275 64.4736 20.3456 62.7805 20.25 60.9692C22.7644 61.5599 22.6238 62.5499 23.1188 64.8449L22.3538 65.323ZM20.8744 57.7461C19.0463 56.0192 21.7069 49.1117 22.8769 47.5199C23.4956 46.738 24.2719 46.7549 25.2956 46.4511L25.9763 46.6255C24.255 49.6742 23.0963 53.8255 22.6856 58.0667L20.8744 57.7461ZM18.2025 81.2924L19.0744 82.7605L18.2925 84.5886L17.8425 85.0667C18.4838 85.1567 18.63 84.6055 19.5863 83.8236C21.4425 86.833 24.2775 89.713 27.405 91.3498L25.7006 94.3536L20.5256 91.0236C19.935 89.9267 20.7506 88.6667 19.8 87.9974C18.9394 87.3899 17.8313 88.2674 16.9538 88.003L14.5238 85.7755C15.2381 84.178 15.9244 82.6142 17.3363 81.7986L18.2025 81.2924ZM13.2525 65.2836C13.4477 63.836 13.7276 62.401 14.0906 60.9861L14.2819 60.9692L15.03 65.2836L15.4238 67.5336C16.5488 70.6724 17.685 73.8055 18.8213 76.933C16.0988 75.448 14.4169 72.0111 14.6588 67.3874C14.0063 68.878 14.5463 71.2236 14.76 72.5399C13.0894 71.1224 12.8813 68.3042 13.2525 65.2836ZM10.7663 66.7742C10.5061 66.2251 10.3425 65.6352 10.2825 65.0305C10.2024 64.2164 10.2099 63.3961 10.305 62.5836L10.5525 62.0661L11.6606 60.9692L11.0363 65.0249L10.7663 66.7686V66.7742ZM110.453 81.2867L107.589 80.1842L110.368 79.8411L110.453 81.2867ZM34.6838 104.912L35.4319 104.518L34.5656 105.964L34.6781 104.917L34.6838 104.912ZM13.0894 55.1642L11.8688 55.0517C10.35 54.5511 8.92688 52.7792 8.7975 50.8105C11.1206 51.0186 11.9081 52.1211 13.0556 53.4655C13.0669 54.028 13.0838 54.5961 13.0894 55.1642ZM12.9206 55.0461C13.0894 51.913 10.6988 49.9555 7.59375 50.0399C8.1225 45.6411 11.9475 43.3911 15.3563 41.9117L16.0144 41.8611C15.4463 47.3849 15.8794 52.1436 13.815 56.9249C12.2906 60.4461 6.885 60.3786 7.1775 65.8124L7.21688 66.2624C7.9875 73.4849 15.84 74.953 16.9256 81.3036C5.28188 87.2267 19.4738 112.117 28.6819 97.498C30.3356 97.7342 31.8038 98.4823 33.8569 97.7623C34.8131 97.2336 34.9988 96.8061 35.37 95.7036L38.6606 97.408L38.8294 97.8242C35.8144 100.164 33.6881 103.376 30.4481 105.57L30.7575 104.681L29.9138 104.529L29.4469 104.782L29.025 106.751C30.8756 108.641 36.4838 101.807 38.1263 100.468C37.1981 103.714 34.9031 105.384 33.6263 108.354L34.02 108.759C36.4388 107.027 39.4031 102.122 39.8531 98.3923L43.4756 98.9942C38.9363 105.131 27.2756 118.631 21.1444 122.237C22.0781 119.306 23.5631 117.067 24.3169 114.66L23.8781 114.694C23.7473 114.558 23.6161 114.423 23.4844 114.289C21.9938 117.225 19.5356 119.289 19.0969 123.249C19.359 123.642 19.6907 123.983 20.0756 124.256C27.3656 123.041 39.5381 104.72 45.3544 99.7142C43.7794 115.52 35.3081 117.984 27.9619 127.558C34.6388 124.228 38.6888 115.734 44.3981 111.02C43.7681 117.619 42.1988 132.373 38.25 135L38.9025 134.949C43.335 132.193 43.5938 120.859 45.0731 115.065L45.7031 108.973L52.0313 100.085L52.4925 99.8323C53.2013 102.054 56.4075 104.467 59.8781 103.82L62.37 102.774L68.625 105.114C69.4463 114.114 69.1313 119.16 63.4331 126.011C69.255 123.035 71.3925 111.572 69.4519 105.485C82.9913 107.055 82.4456 102.487 79.8806 92.6267L82.26 92.6661C81.8212 92.008 80.6344 92.4973 79.7288 91.9911C79.3181 91.7267 79.3969 91.7774 79.1438 91.3836C82.3613 87.7555 90.1125 91.3611 88.4813 97.3855C90.7087 92.3905 85.7869 87.9467 81.045 89.7355C83.07 87.3336 85.5225 85.3592 86.805 82.1811L87.2663 81.9336L98.4037 93.6336L99.0619 93.583L99.5681 92.8967C96.0244 88.7005 92.4863 84.4986 88.9538 80.2967L90.09 79.7792C90.3412 79.5201 90.6496 79.3235 90.9906 79.2053C91.3315 79.0871 91.6955 79.0506 92.0531 79.0986C91.8654 79.0053 91.6779 78.9116 91.4906 78.8174C97.1775 79.3855 104.445 84.1273 110.379 82.5974C110.925 81.6467 110.953 81.1348 110.621 80.2067C116.944 80.3642 128.317 78.2492 131.94 75.178C122.209 77.2199 111.251 77.9117 102.319 76.7192L94.4044 75.7911L93.96 75.8249L96.0919 71.9999C102.617 71.8761 119.728 71.713 123.188 67.618L122.423 66.5942L119.441 66.1667C119.233 66.4996 119.116 66.8821 119.104 67.2749L121.466 67.528C116.336 68.8217 102.049 71.5499 97.3856 69.958C96.8963 69.3617 97.2563 67.2917 97.2788 65.8011C97.2871 65.5344 97.2758 65.2674 97.245 65.0023C103.95 62.9999 108.928 58.4886 110.97 51.6824C112.134 47.7842 111.364 42.6655 113.884 40.2355C115.493 40.3761 115.819 41.0567 117 41.518C116.376 40.6517 115.481 40.168 114.362 39.7742L112.264 41.2199C110.346 41.9624 108.338 40.0217 105.081 41.5349C102.437 39.2736 100.946 35.7017 97.3744 34.3349L97.0088 33.7161L101.34 29.503C99.9225 30.6899 98.4769 32.0905 97.0313 33.4967L94.1287 32.1974L93.96 31.7755C97.2675 29.4355 100.204 28.5692 103.967 29.3117C104.141 29.6605 104.327 30.0036 104.507 30.3524C104.333 30.6505 104.175 30.7349 104.023 30.8192L102.758 30.4817C103.303 30.8024 103.871 30.9036 104.439 31.0049L104.918 30.538L104.991 29.8855C104.169 29.1542 103.916 28.6255 102.302 28.5692L103.073 27.433C101.228 28.7042 97.4813 29.0417 95.6475 30.1442L99.8888 26.803L100.395 26.1224L92.5481 30.8024C90.8719 30.6899 89.0888 29.9024 88.1831 28.963C88.0387 28.9741 87.8944 28.9853 87.75 28.9967L97.065 22.6967L96.9131 22.0611C93.3806 24.1199 89.8425 26.1786 86.3156 28.243L82.9294 27.4105L83.2444 24.3674L107.527 5.29861L107.961 5.26486L107.618 4.42673C106.718 3.99923 103.022 6.99736 101.627 7.89173C96.2494 11.3399 91.4963 15.6317 86.2088 18.748C88.3913 15.9749 92.385 13.213 93.0488 9.17423L91.98 9.03923L90.315 10.4567L92.1263 9.66923C90.9563 13.2299 85.6575 19.5861 82.665 21.5999L82.3162 20.7617C84.2625 17.488 86.1806 13.0836 85.2806 8.88173L83.6494 7.92548L81.9 8.05486C83.0194 8.49923 83.7787 8.60611 84.6 9.15173C85.1231 13.2242 83.1206 15.9805 82.0406 19.2767L81.5794 19.5242C80.8594 18.1911 80.9044 17.5499 79.425 17.308L79.2956 16.453L80.3081 15.0805L81.0056 14.5967C81.2419 15.0467 81.2531 14.8836 81.3263 15.6542C81.5336 15.3231 81.6482 14.9423 81.6581 14.5517L80.8312 14.1805L78.6431 16.498C76.815 15.2774 74.8013 13.9949 72.2306 13.5167C73.6875 10.4961 78.1144 5.64173 75.8306 1.81111C73.0406 -2.84639 63.5175 2.51986 60.03 6.21548C59.6254 6.62756 59.2739 7.08864 58.9838 7.58798C59.329 7.31345 59.6777 7.04342 60.03 6.77798C63.4725 4.21298 72.6356 -1.92952 74.6212 2.98111C76.7025 5.72048 72.7144 10.9911 71.6287 13.1342C67.9163 12.7574 64.035 12.403 60.0413 12.4817C55.8377 12.5184 51.6637 13.1897 47.6606 14.473C45.6356 15.1424 36.9956 20.3174 36.6638 20.2499L32.7263 16.4361L24.4913 12.3017L24.4463 12.7349L23.9625 13.2017L34.515 22.1342L32.9063 23.1186C28.5638 19.828 25.5713 17.8311 19.1081 16.1492L18.0169 16.2336C21.7913 18.8324 25.5938 21.2117 29.3906 23.5967L30.15 24.6205C27.4388 25.7624 26.2913 28.1361 24.0019 29.6099C20.4244 27.8999 17.1113 26.3474 12.7744 25.0367L12.4706 25.9255L20.5931 31.1567L21.0319 31.123L19.6313 32.0905C18.9844 34.2674 17.7188 36.793 16.6613 39.8642C12.6113 43.1605 7.36313 42.9636 6.5475 49.6799C5.25375 50.0342 4.3425 50.1467 3.16125 51.013L3.07125 51.8849C3.81375 52.9199 10.3894 55.7042 11.9588 55.9742L12.9263 55.0405L12.9206 55.0461ZM60.9581 8.60611L61.56 8.71861L60.7556 8.61736C60.615 8.61736 60.4744 8.62861 60.3394 8.63423C60.975 7.45298 62.8425 7.16048 64.6369 7.28986L64.5131 8.14486L61.0031 8.31923L60.9581 8.60611ZM63.4669 10.1642L65.1544 9.61298C65.8856 8.39798 66.3019 7.10986 65.9306 5.93423C64.1925 5.59111 63.1913 6.01298 61.5656 6.69923C61.2698 7.18021 60.9754 7.66209 60.6825 8.14486L60.345 8.70736C60.449 8.82809 60.5618 8.9409 60.6825 9.04486C61.2338 9.49486 61.8975 9.65236 63.1181 9.55111C63.4556 10.1249 63.0619 9.87173 62.46 10.0292L63.4725 10.1642H63.4669ZM105.109 23.2311L103.298 23.5686L104.411 23.4899L105.688 24.0411L103.753 27.5849C104.749 26.4092 105.739 25.5767 106.161 23.7936L105.109 23.2311ZM94.7025 79.8467C94.2525 79.0424 93.7631 78.5136 93.2738 78.3899C93.7069 78.8005 94.2075 79.2842 94.7025 79.8467ZM88.9763 97.2617L87.5475 98.0942L88.6444 97.993L88.9819 97.2617H88.9763ZM94.7025 79.8467C96.1594 81.4892 97.2506 84.6392 96.9356 87.103C98.5894 83.5311 96.705 81.3036 94.7025 79.8467Z" fill="black"/>
</g>
<defs>
<clipPath id="clip0_15_328">
<rect width="135" height="135" fill="white"/>
</clipPath>
</defs>
</svg>
