<svg width="181" height="23" fill="none" xmlns="http://www.w3.org/2000/svg"><path d="M.19 1.36c0-.1.03-.18.09-.24C.36 1.04.45 1 .55 1h6.69c1.44 0 2.79.27 4.05.81 1.26.54 2.36 1.28 3.3 2.22.94.92 1.69 2.01 2.25 3.27.58 1.24.88 2.57.9 3.99.04 1.48-.23 2.87-.81 4.17-.56 1.3-1.33 2.44-2.31 3.42-.98.96-2.13 1.72-3.45 2.28-1.3.56-2.69.84-4.17.84H.55c-.1 0-.19-.03-.27-.09a.439.439 0 0 1-.09-.27V1.36Zm3.84 16.83h3.21c.92 0 1.78-.17 2.58-.51.82-.36 1.53-.84 2.13-1.44.62-.62 1.1-1.33 1.44-2.13.36-.82.54-1.69.54-2.61 0-.92-.18-1.78-.54-2.58a6.27 6.27 0 0 0-1.44-2.13 6.27 6.27 0 0 0-2.13-1.44c-.8-.36-1.66-.54-2.58-.54H4.03v13.38Zm16.355-6.78c0-1.54.28-2.97.84-4.29.58-1.34 1.35-2.49 2.31-3.45.98-.98 2.13-1.74 3.45-2.28 1.32-.56 2.74-.83 4.26-.81 1.52.02 2.94.32 4.26.9 1.32.58 2.46 1.37 3.42 2.37.98 1 1.75 2.17 2.31 3.51.56 1.32.83 2.73.81 4.23-.02 1.52-.32 2.94-.9 4.26a10.94 10.94 0 0 1-2.37 3.45c-.98.98-2.13 1.75-3.45 2.31-1.32.54-2.74.81-4.26.81-1.5 0-2.91-.28-4.23-.84-1.3-.58-2.43-1.36-3.39-2.34-.96-1-1.71-2.17-2.25-3.51-.54-1.34-.81-2.78-.81-4.32Zm3.84.15c0 .98.19 1.91.57 2.79.38.88.89 1.65 1.53 2.31.64.66 1.38 1.18 2.22 1.56.84.38 1.74.57 2.7.57a6.46 6.46 0 0 0 2.67-.63c.84-.4 1.57-.93 2.19-1.59.64-.68 1.14-1.46 1.5-2.34.36-.9.53-1.84.51-2.82 0-.98-.19-1.91-.57-2.79-.38-.88-.89-1.64-1.53-2.28a7.096 7.096 0 0 0-2.25-1.56c-.84-.38-1.73-.57-2.67-.57-.94.02-1.83.23-2.67.63-.84.38-1.57.91-2.19 1.59-.62.66-1.11 1.43-1.47 2.31-.36.88-.54 1.82-.54 2.82ZM41.605.94h3.81c.4 0 .73.16.99.48l10.8 14.04V1.3c0-.1.03-.18.09-.24.08-.08.17-.12.27-.12h2.85c.4 0 .73.16.99.48l10.77 14.04V1.3c0-.1.04-.18.12-.24.08-.08.17-.12.27-.12h3.09c.1 0 .18.04.24.12.08.06.12.14.12.24v20.28c0 .24-.12.36-.36.36h-2.85c-.4 0-.73-.16-.99-.48l-10.8-14.04v14.16c0 .24-.12.36-.36.36h-2.85c-.4 0-.73-.16-.99-.48l-15.42-20.1c-.08-.08-.09-.17-.03-.27s.14-.15.24-.15Zm38.741 20.7V1.36c0-.1.03-.18.09-.24.08-.08.17-.12.27-.12h2.85c.4 0 .73.16.99.48l10.8 14.04V1.36c0-.24.12-.36.36-.36h3.09c.24 0 .36.12.36.36v20.28c0 .24-.12.36-.36.36h-2.85c-.4 0-.73-.16-.99-.48L84.186 7.48v14.16c0 .24-.13.36-.39.36h-3.09c-.1 0-.19-.03-.27-.09a.439.439 0 0 1-.09-.27ZM103.851 1h3.09c.26 0 .39.12.39.36v16.83h8.4c.12 0 .2.05.24.15.06.1.06.19 0 .27l-2.25 2.91c-.26.32-.58.48-.96.48h-8.91c-.1 0-.19-.03-.27-.09a.439.439 0 0 1-.09-.27V1.36c0-.1.03-.18.09-.24.08-.08.17-.12.27-.12Zm13.653 10.41c0-1.54.28-2.97.84-4.29.58-1.34 1.35-2.49 2.31-3.45.98-.98 2.13-1.74 3.45-2.28 1.32-.56 2.74-.83 4.26-.81 1.52.02 2.94.32 4.26.9 1.32.58 2.46 1.37 3.42 2.37.98 1 1.75 2.17 2.31 3.51.56 1.32.83 2.73.81 4.23-.02 1.52-.32 2.94-.9 4.26a10.94 10.94 0 0 1-2.37 3.45c-.98.98-2.13 1.75-3.45 2.31-1.32.54-2.74.81-4.26.81-1.5 0-2.91-.28-4.23-.84-1.3-.58-2.43-1.36-3.39-2.34-.96-1-1.71-2.17-2.25-3.51-.54-1.34-.81-2.78-.81-4.32Zm3.84.15c0 .98.19 1.91.57 2.79.38.88.89 1.65 1.53 2.31.64.66 1.38 1.18 2.22 1.56.84.38 1.74.57 2.7.57a6.46 6.46 0 0 0 2.67-.63c.84-.4 1.57-.93 2.19-1.59.64-.68 1.14-1.46 1.5-2.34.36-.9.53-1.84.51-2.82 0-.98-.19-1.91-.57-2.79-.38-.88-.89-1.64-1.53-2.28a7.096 7.096 0 0 0-2.25-1.56c-.84-.38-1.73-.57-2.67-.57-.94.02-1.83.23-2.67.63-.84.38-1.57.91-2.19 1.59-.62.66-1.11 1.43-1.47 2.31-.36.88-.54 1.82-.54 2.82Zm17.17 10.02 15.42-20.1c.26-.32.59-.48.99-.48h2.85c.24 0 .36.12.36.36v20.28c0 .24-.12.36-.36.36h-2.85c-.4 0-.73-.16-.99-.48l-5.19-6.78-5.22 6.78c-.26.32-.59.48-.99.48h-3.81c-.1 0-.18-.04-.24-.12-.06-.1-.05-.2.03-.3Zm12.72-10.08 3.09 4.02V7.48l-3.09 4.02Zm11.231-10.14c0-.1.03-.18.09-.24.08-.08.17-.12.27-.12h6.69c1.44 0 2.79.27 4.05.81 1.26.54 2.36 1.28 3.3 2.22.94.92 1.69 2.01 2.25 3.27.58 1.24.88 2.57.9 3.99.04 1.48-.23 2.87-.81 4.17-.56 1.3-1.33 2.44-2.31 3.42-.98.96-2.13 1.72-3.45 2.28-1.3.56-2.69.84-4.17.84h-6.45c-.1 0-.19-.03-.27-.09a.439.439 0 0 1-.09-.27V1.36Zm3.84 16.83h3.21c.92 0 1.78-.17 2.58-.51.82-.36 1.53-.84 2.13-1.44.62-.62 1.1-1.33 1.44-2.13.36-.82.54-1.69.54-2.61 0-.92-.18-1.78-.54-2.58a6.27 6.27 0 0 0-1.44-2.13 6.27 6.27 0 0 0-2.13-1.44c-.8-.36-1.66-.54-2.58-.54h-3.21v13.38Z" fill="#121B26"/></svg>