<svg width="84" height="23" fill="none" xmlns="http://www.w3.org/2000/svg"><path d="M.81 11.41c0-1.54.28-2.97.84-4.29C2.23 5.78 3 4.63 3.96 3.67c.98-.98 2.13-1.74 3.45-2.28C8.73.83 10.15.56 11.67.58c1.46.02 2.83.3 4.11.84 1.28.52 2.4 1.25 3.36 2.19.16.16.17.32.03.48l-1.92 2.49a.37.37 0 0 1-.27.18c-.1 0-.19-.05-.27-.15a7.198 7.198 0 0 0-2.31-1.77c-.9-.44-1.86-.65-2.88-.63-.94 0-1.83.2-2.67.6-.84.4-1.57.93-2.19 1.59-.62.66-1.11 1.44-1.47 2.34-.36.88-.54 1.82-.54 2.82 0 .98.19 1.91.57 2.79.38.88.89 1.65 1.53 2.31.64.66 1.38 1.18 2.22 1.56.84.38 1.74.57 2.7.57.78-.02 1.52-.17 2.22-.45.72-.28 1.37-.66 1.95-1.14.6-.48 1.11-1.04 1.53-1.68.42-.66.73-1.37.93-2.13h-5.85c-.1 0-.18-.04-.24-.12-.04-.1-.03-.2.03-.3l1.92-2.82c.26-.36.6-.54 1.02-.54h7.11c.06.34.1.67.12.99.04.32.05.65.03.99-.02 1.52-.32 2.94-.9 4.26-.56 1.32-1.34 2.47-2.34 3.45-.98.98-2.13 1.75-3.45 2.31-1.32.54-2.74.81-4.26.81-1.5 0-2.91-.28-4.23-.84-1.3-.58-2.43-1.36-3.39-2.34-.96-1-1.71-2.17-2.25-3.51-.54-1.34-.81-2.78-.81-4.32ZM26.06.94h3.09c.1 0 .18.04.24.12.08.06.12.14.12.24v12.99c0 .54.09 1.06.27 1.56.2.48.46.92.78 1.32a4.206 4.206 0 0 0 2.7 1.38c.62.06 1.2-.01 1.74-.21.56-.2 1.04-.49 1.44-.87.42-.38.75-.83.99-1.35.24-.54.36-1.11.36-1.71V1.3c0-.1.04-.18.12-.24.08-.08.17-.12.27-.12h3.06c.1 0 .18.04.24.12.08.06.12.14.12.24v13.11c0 1.08-.21 2.1-.63 3.06-.4.96-.95 1.8-1.65 2.52s-1.53 1.3-2.49 1.74c-.94.42-1.95.64-3.03.66-1.12.02-2.17-.18-3.15-.6a8.588 8.588 0 0 1-2.58-1.77 8.52 8.52 0 0 1-1.74-2.61c-.42-1-.63-2.06-.63-3.18V1.3c0-.1.03-.18.09-.24.08-.08.17-.12.27-.12Zm19.86 20.7V1.36c0-.1.03-.18.09-.24.08-.08.17-.12.27-.12h2.85c.4 0 .73.16.99.48l10.8 14.04V1.36c0-.24.12-.36.36-.36h3.09c.24 0 .36.12.36.36v20.28c0 .24-.12.36-.36.36h-2.85c-.4 0-.73-.16-.99-.48L49.758 7.48v14.16c0 .24-.13.36-.39.36h-3.09c-.1 0-.19-.03-.27-.09a.439.439 0 0 1-.09-.27ZM68.493 7.15c0-.94.19-1.81.57-2.61.4-.8.93-1.49 1.59-2.07.68-.58 1.46-1.04 2.34-1.38.9-.34 1.85-.51 2.85-.51 1.56 0 2.91.28 4.05.84 1.16.54 2.03 1.17 2.61 1.89.14.18.13.34-.03.48l-2.07 2.16c-.08.08-.18.12-.3.12-.1 0-.19-.05-.27-.15-.18-.2-.41-.4-.69-.6-.26-.2-.57-.38-.93-.54a5.052 5.052 0 0 0-2.34-.57c-.5 0-.96.08-1.38.24-.4.14-.74.33-1.02.57-.28.24-.5.52-.66.84-.16.32-.24.66-.24 1.02 0 .58.19 1.08.57 1.5.38.42.95.71 1.71.87l2.94.57c.96.18 1.8.47 2.52.87.74.38 1.35.84 1.83 1.38.5.54.88 1.15 1.14 1.83.26.66.39 1.36.39 2.1 0 .8-.17 1.59-.51 2.37-.32.78-.81 1.48-1.47 2.1-.64.62-1.43 1.12-2.37 1.5-.94.36-2.02.54-3.24.54-.86 0-1.67-.09-2.43-.27-.74-.18-1.42-.41-2.04-.69-.6-.3-1.13-.62-1.59-.96a8.53 8.53 0 0 1-1.14-1.05c-.14-.14-.14-.3 0-.48l1.89-2.43c.06-.1.14-.15.24-.15.12-.02.22.01.3.09.28.26.59.53.93.81.34.26.71.5 1.11.72.4.22.83.4 1.29.54.46.14.95.21 1.47.21 1.1 0 1.94-.24 2.52-.72.58-.48.87-1.1.87-1.86 0-.6-.22-1.12-.66-1.56-.42-.46-1.05-.77-1.89-.93l-2.94-.6c-1.68-.34-3.02-1.03-4.02-2.07-1-1.04-1.5-2.36-1.5-3.96Z" fill="#FF8189"/></svg>