<svg width="12" height="12" fill="none" xmlns="http://www.w3.org/2000/svg"><g clip-path="url(#a)"><path d="M9.572 2.116a9.421 9.421 0 0 0-2.301-.702.035.035 0 0 0-.037.017c-.1.174-.21.4-.287.58a8.748 8.748 0 0 0-2.585 0 5.825 5.825 0 0 0-.29-.58.036.036 0 0 0-.038-.018 9.413 9.413 0 0 0-2.302.703.033.033 0 0 0-.015.012C.251 4.284-.15 6.386.047 8.462a.038.038 0 0 0 .014.026 9.437 9.437 0 0 0 2.824 1.404.037.037 0 0 0 .04-.012c.217-.292.411-.6.577-.925a.035.035 0 0 0-.02-.049 6.22 6.22 0 0 1-.881-.414.035.035 0 0 1-.004-.059 3.38 3.38 0 0 0 .175-.135.035.035 0 0 1 .037-.004c1.85.83 3.854.83 5.683 0a.035.035 0 0 1 .037.004c.056.046.115.092.175.135a.035.035 0 0 1-.003.06 5.957 5.957 0 0 1-.882.413.035.035 0 0 0-.02.049c.17.324.364.632.578.924a.036.036 0 0 0 .04.014 9.406 9.406 0 0 0 2.827-1.405.035.035 0 0 0 .015-.025c.236-2.4-.395-4.486-1.672-6.334a.028.028 0 0 0-.015-.013ZM3.78 7.198c-.557 0-1.017-.504-1.017-1.121 0-.618.45-1.122 1.017-1.122.57 0 1.025.508 1.016 1.122 0 .618-.45 1.121-1.016 1.121Zm3.757 0c-.557 0-1.016-.504-1.016-1.121 0-.618.45-1.122 1.016-1.122.57 0 1.025.508 1.016 1.122 0 .618-.445 1.121-1.016 1.121Z" fill="#FF4654"/></g><defs><clipPath id="a"><path fill="#fff" d="M0 0h11.308v11.308H0z"/></clipPath></defs></svg>