<svg width="12" height="12" fill="none" xmlns="http://www.w3.org/2000/svg"><g clip-path="url(#a)"><path fill-rule="evenodd" clip-rule="evenodd" d="M0 5.685c0 2.811 2.042 5.149 4.712 5.623V7.224H3.298v-1.57h1.414V4.397c0-1.413.91-2.198 2.198-2.198.408 0 .848.063 1.257.125V3.77h-.723c-.691 0-.848.346-.848.786v1.099h1.508l-.251 1.57H6.596v4.084c2.67-.474 4.712-2.811 4.712-5.623C11.308 2.558 8.763 0 5.654 0 2.544 0 0 2.558 0 5.685Z" fill="#FF4654"/></g><defs><clipPath id="a"><path fill="#fff" d="M0 0h11.308v11.308H0z"/></clipPath></defs></svg>