<svg width="12" height="12" fill="none" xmlns="http://www.w3.org/2000/svg"><g clip-path="url(#a)"><path d="M11.14 2.326a4.395 4.395 0 0 1-1.26.345 2.2 2.2 0 0 0 .964-1.214c-.43.256-.902.436-1.394.532a2.196 2.196 0 0 0-3.74 2.003 6.233 6.233 0 0 1-4.524-2.294 2.194 2.194 0 0 0-.037 2.14c.17.318.416.59.717.79a2.19 2.19 0 0 1-.994-.274v.028a2.196 2.196 0 0 0 1.76 2.152 2.21 2.21 0 0 1-.991.038 2.196 2.196 0 0 0 2.05 1.524 4.404 4.404 0 0 1-3.25.91 6.207 6.207 0 0 0 3.364.985c4.038 0 6.246-3.344 6.246-6.244 0-.095-.003-.19-.007-.284.43-.31.8-.695 1.095-1.136v-.001Z" fill="#FF4654"/></g><defs><clipPath id="a"><path fill="#fff" d="M0 0h11.308v11.308H0z"/></clipPath></defs></svg>