<svg width="47" height="59" fill="none" xmlns="http://www.w3.org/2000/svg"><path fill-rule="evenodd" clip-rule="evenodd" d="M24.518 0c0 2.499.029 4.419-1.178 6.716l.16-.002c12.979 0 23.5 10.62 23.5 23.721a23.76 23.76 0 0 1-9.611 19.137c-1.906 1.85-6.273 4.994-13.104 9.428.43-1.869.2-3.484-.69-4.846l-.095.002C10.521 54.156 0 43.536 0 30.435c0-9.179 5.165-17.14 12.72-21.084C18.85 5.071 22.782 1.953 24.519 0ZM23.5 16.944c-7.416 0-13.428 6.068-13.428 13.554 0 1.41.213 2.77.609 4.048 4.02 2.889 11.834 1.172 12.594-7.436 1.77 6.915.534 13.837-7.995 14.108a13.288 13.288 0 0 0 8.22 2.835c7.416 0 13.429-6.069 13.429-13.555S30.916 16.943 23.5 16.943Z" fill="#F8F8F8"/></svg>