<svg width="53" height="58" fill="none" xmlns="http://www.w3.org/2000/svg"><path fill-rule="evenodd" clip-rule="evenodd" d="m26.5 0 .246.582c2.518 6.116 4.25 15.344 5.196 27.683l.086 1.166-3.944 4.908v2.099c.971 0 3.944 2.035 3.944 5.17 0 3-1.962 4.491-2.675 4.615l-.089.008v10.392c0 .794-.803 1.247-2.408 1.358L26.5 58c-1.843-.067-2.764-.526-2.764-1.377V46.231c-.62 0-2.764-1.486-2.764-4.622s2.973-5.171 3.944-5.171v-2.1l-3.944-4.907C21.926 16.102 23.768 6.291 26.5 0ZM.021 8.966l.401.385c3.755 3.684 7.832 9.844 12.23 18.482l.472.935-1.575 4.796.63 1.533c.75-.298 3.657.276 4.598 2.567.941 2.29-.27 4.035-.748 4.225l3.662 8.916c.237.577-.241 1.151-1.435 1.723l-.288.131c-1.444.517-2.293.465-2.548-.157l-3.662-8.915c-.48.19-2.582-.237-3.523-2.528-.941-2.291.746-4.69 1.496-4.989l-.63-1.533-4.52-2.374C1.32 22.133-.2 14.401.021 8.966Zm52.958 0c.222 5.435-1.297 13.167-4.56 23.197l-4.52 2.374-.63 1.533c.75.298 2.437 2.698 1.496 4.989-.941 2.29-3.044 2.718-3.523 2.528l-3.662 8.915c-.255.622-1.105.674-2.548.157l-.288-.131c-1.194-.572-1.672-1.146-1.435-1.723l3.662-8.916c-.479-.19-1.69-1.934-.748-4.225.94-2.291 3.848-2.865 4.598-2.567l.63-1.533-1.575-4.796.473-.935c4.398-8.637 8.474-14.798 12.229-18.482l.4-.385ZM26.5 38.969c-1.527 0-2.764 1.217-2.764 2.719 0 1.501 1.237 2.718 2.764 2.718 1.527 0 2.764-1.217 2.764-2.718 0-1.502-1.237-2.72-2.764-2.72Zm-14.786-1.536c-1.18.469-1.77 1.738-1.32 2.835.45 1.096 1.772 1.606 2.952 1.137 1.18-.469 1.77-1.738 1.32-2.835-.451-1.097-1.773-1.606-2.952-1.137Zm29.572 0c-1.18-.469-2.5.04-2.951 1.137-.45 1.097.14 2.366 1.32 2.835 1.179.469 2.5-.04 2.95-1.137.451-1.097-.14-2.366-1.319-2.835Z" fill="#1F2326"/></svg>