<svg width="43" height="57" fill="none" xmlns="http://www.w3.org/2000/svg"><path fill-rule="evenodd" clip-rule="evenodd" d="m22.533 41.343 6.616 5.274c.392.313.62.786.62 1.287V57L21.5 50.408 13.23 57v-9.096c0-.501.23-.975.621-1.287l6.616-5.274a1.658 1.658 0 0 1 2.066 0Zm.073-19.608 14.885 13.349c.349.313.547.758.547 1.225v9.155L22.606 31.623a1.658 1.658 0 0 0-2.212 0L4.962 45.463V36.31c0-.467.198-.912.547-1.225l14.885-13.35a1.658 1.658 0 0 1 2.212 0ZM22.67.483l19.362 19.294a3.29 3.29 0 0 1 .969 2.33v11.82l-6.615-4.944V24.72c0-.437-.175-.856-.485-1.165L22.67 10.37a1.658 1.658 0 0 0-2.34 0L7.1 23.556c-.31.309-.485.728-.485 1.165v4.262L0 33.927v-11.82c0-.874.348-1.712.969-2.33L20.33.483a1.658 1.658 0 0 1 2.338 0Z" fill="#F8F8F8"/></svg>