<svg width="53" height="72" fill="none" xmlns="http://www.w3.org/2000/svg"><path fill-rule="evenodd" clip-rule="evenodd" d="m48.825 0-9.88 19.511a16.644 16.644 0 0 1 5.225 12.125c0 1.035-.095 2.05-.275 3.033L53 41.997 42.164 39.57a16.8 16.8 0 0 1-12.15 8.584L27.385 72l-2.169-23.78A16.724 16.724 0 0 1 20.747 47l-6.074 4.078 2.653-6.053c-3.915-2.923-6.506-7.511-6.715-12.71L0 28.201l11.246-1.184a16.666 16.666 0 0 1 3.426-6.303v-4.19l5.024.242a16.712 16.712 0 0 1 4.498-1.551h-.167l2.577-13.68 2.54 13.47c1.954.202 3.807.738 5.503 1.55L48.825 0ZM27.384 23.832c-4.327 0-7.834 3.494-7.834 7.803 0 4.31 3.507 7.804 7.834 7.804 4.326 0 7.833-3.494 7.833-7.803 0-4.31-3.507-7.804-7.833-7.804Z" fill="#F8F8F8"/></svg>