<svg width="69" height="51" fill="none" xmlns="http://www.w3.org/2000/svg"><path fill-rule="evenodd" clip-rule="evenodd" d="M14.439.03c-2.486 14.496.365 35.465 18.144 50.97-8.566-.404-15.403-1.598-20.51-3.583l4.679-2.995C-1.274 32.595-1.114 17.76.92 13.924c1.936 4.151 3.976 6.666 6.12 7.545C6.381 12.232 8.848 5.086 14.44.03ZM54.561 0c5.592 5.056 8.058 12.202 7.399 21.439 2.144-.879 4.184-3.394 6.12-7.545 2.034 3.837 2.194 18.671-15.832 30.498l4.679 2.995c-5.107 1.985-11.944 3.18-20.51 3.583C54.197 35.465 57.047 14.496 54.56 0Zm-8.662 25.06c.89 4.877-4.093 10.246-11.397 14.582v.001H34.5c-7.304-4.337-12.287-9.706-11.397-14.582.89-4.878 8.939-6.518 11.4 0l-.003-.003.145-.358c2.617-6.093 10.381-4.425 11.254.36ZM34.5 9.44c2.117 0 3.833 1.69 3.833 3.775 0 2.086-1.716 3.776-3.833 3.776s-3.833-1.69-3.833-3.775c0-2.086 1.716-3.776 3.833-3.776Z" fill="#1F2326"/></svg>