<svg width="36" height="65" fill="none" xmlns="http://www.w3.org/2000/svg"><path fill-rule="evenodd" clip-rule="evenodd" d="M14.958 0c-2.275 8.457-5.32 24.414 2.354 27.638 5.117 2.15 6.121-3.733 3.014-17.646 5.098 7.321 7.29 14.383 6.575 21.186a18.04 18.04 0 0 1 2.674 1.873c1.223-.737 1.834-2.15 1.834-4.236 1.324 2.427 1.649 4.831.974 7.21A18.078 18.078 0 0 1 36 46.908C36 56.9 27.941 65 18 65S0 56.9 0 46.907c0-2.88.67-5.602 1.86-8.019-1.17-2.727-.86-6.477.934-11.25 0 4.297.808 5.331 1.763 5.94.269.17.59.27.962.296a17.744 17.744 0 0 1 1.716-1.468C6.291 19.942 8.865 9.139 14.958 0ZM18 38.337c-4.709 0-8.526 3.837-8.526 8.57a8.571 8.571 0 0 0 5.562 8.039c.313-2.965 1.54-5.001 3.682-6.113 0 2.376-.31 4.793 1.308 6.4a8.564 8.564 0 0 0 6.5-8.326c0-4.733-3.817-8.57-8.526-8.57Z" fill="#F8F8F8"/></svg>