<svg width="50" height="48" fill="none" xmlns="http://www.w3.org/2000/svg"><path fill-rule="evenodd" clip-rule="evenodd" d="M46.032 24c0 11.15-9.416 20.19-21.032 20.19S3.968 35.15 3.968 24C3.968 12.85 13.384 3.81 25 3.81S46.032 12.85 46.032 24ZM50 24c0 13.255-11.193 24-25 24S0 37.255 0 24 11.193 0 25 0s25 10.745 25 24ZM21.825 12.19l-4.387-3.86c-3.14 1.357-5.786 3.58-7.609 6.352l2.076 3.985-3.49-1.34a16.133 16.133 0 0 0-1.272 6.292c0 1.048.1 2.073.292 3.068l6.057-1.163 5.555-9.143-1.19 9.143-7.616 7.63a17.108 17.108 0 0 0 2.896 3.106l-.042-.07 4.365-3.428-2.269 4.978a17.91 17.91 0 0 0 9.412 2.641c4.302 0 8.24-1.493 11.284-3.97l-2.554-3.268L23.81 32l8.73-2.667.397-4.952-4.365-9.524L35.714 24v4.952l4.29 2.574a16.161 16.161 0 0 0 2.06-7.907c0-3.822-1.333-7.346-3.577-10.165l-3.566 4.45 1.83-6.325c-3.143-2.923-7.426-4.722-12.148-4.722-.132 0-.265.002-.397.005v3.424l1.19 1.904-1.983 7.62-1.588-7.62Z" fill="#1F2326"/></svg>