<svg width="68" height="23" fill="none" xmlns="http://www.w3.org/2000/svg"><path d="M56.973 0C63.063 0 68 4.909 68 10.965c0 6.055-4.937 10.965-11.027 10.965-5.463 0-9.999-3.951-10.874-9.136l-1.991-.002v1.07c0 .485-.193.95-.538 1.293l-7.352 7.31a1.845 1.845 0 0 1-2.599 0l-7.35-7.31a1.822 1.822 0 0 1-.54-1.292v-1.07h-3.828c-.875 5.186-5.41 9.137-10.874 9.137C4.937 21.93 0 17.02 0 10.965 0 4.909 4.937 0 11.027 0c5.464 0 10 3.952 10.875 9.138h3.828V1.974c0-1.01.822-1.828 1.837-1.828.418 0 .823.141 1.149.4L33.77 4.57a1.846 1.846 0 0 0 2.296 0L41.122.548a1.845 1.845 0 0 1 2.583.285c.261.324.403.727.403 1.142v7.162h1.99C46.973 3.953 51.51 0 56.973 0ZM11.027 5.482c-3.045 0-5.513 2.455-5.513 5.483 0 3.027 2.468 5.482 5.513 5.482 2.4 0 4.442-1.525 5.2-3.653l-5.2-.002a1.833 1.833 0 0 1-1.838-1.827c0-1.01.823-1.828 1.838-1.828h5.2a5.514 5.514 0 0 0-5.2-3.655Zm45.946 0a5.514 5.514 0 0 0-5.2 3.655h5.2c1.015 0 1.838.819 1.838 1.828a1.833 1.833 0 0 1-1.838 1.827l-5.2.002a5.514 5.514 0 0 0 5.2 3.653c3.045 0 5.514-2.454 5.514-5.482s-2.47-5.483-5.514-5.483Z" fill="#F8F8F8"/></svg>