<svg width="60" height="53" fill="none" xmlns="http://www.w3.org/2000/svg"><path fill-rule="evenodd" clip-rule="evenodd" d="M55 46.375V53H5v-6.625h50ZM27.169 6.794l-3.199 5.808c-7.163 2.478-12.303 9.248-12.303 17.21 0 5.222 2.21 9.93 5.751 13.252H10.85a22.983 22.983 0 0 1-4.183-13.252c0-11.853 8.95-21.63 20.502-23.018Zm5.664 0c11.55 1.39 20.5 11.165 20.5 23.018 0 4.928-1.546 9.496-4.183 13.253l-6.569-.001c3.542-3.322 5.752-8.03 5.752-13.252 0-7.961-5.139-14.73-12.3-17.209l-3.2-5.809ZM30 0c16.569 0 30 13.348 30 29.813 0 4.76-1.123 9.259-3.119 13.25H53.1a26.253 26.253 0 0 0 3.568-13.25c0-14.636-11.94-26.5-26.667-26.5-14.728 0-26.667 11.864-26.667 26.5 0 4.827 1.3 9.353 3.569 13.25H3.119A29.538 29.538 0 0 1 0 29.813C0 13.348 13.431 0 30 0Zm0 6.625L40 26.5c-3.333-1.104-5.556-1.104-6.667 0-1.11 1.104-2.222 5.52-3.333 13.25-1.111-7.73-2.222-12.146-3.333-13.25-1.112-1.104-3.334-1.104-6.667 0L30 6.625Z" fill="#1F2326"/></svg>