<svg width="697" height="103" fill="none" xmlns="http://www.w3.org/2000/svg"><path d="M1.9 2.72h14.42c.467 0 .887.187 1.26.56.373.28.56.653.56 1.12v66.08L68.4 4.96c1.213-1.493 2.753-2.24 4.62-2.24H90.8c.56 0 .933.233 1.12.7.28.467.28.887 0 1.26l-72.1 93.8c-1.213 1.493-2.753 2.24-4.62 2.24H1.9c-.467 0-.887-.14-1.26-.42a2.047 2.047 0 0 1-.42-1.26V4.4c0-.467.14-.84.42-1.12.373-.373.793-.56 1.26-.56Zm44.458 96.32 71.96-93.8c1.213-1.493 2.753-2.24 4.62-2.24h13.3c1.12 0 1.68.56 1.68 1.68v94.64c0 1.12-.56 1.68-1.68 1.68h-13.3c-1.867 0-3.407-.747-4.62-2.24l-24.22-31.64-24.36 31.64c-1.214 1.493-2.754 2.24-4.62 2.24h-17.78a1.33 1.33 0 0 1-1.12-.56c-.28-.467-.234-.933.14-1.4ZM105.718 52l14.42 18.76V33.24L105.718 52ZM159.81 3h14.42c1.213 0 1.82.56 1.82 1.68v78.54h39.2c.56 0 .933.233 1.12.7.28.467.28.887 0 1.26l-10.5 13.58c-1.213 1.493-2.707 2.24-4.48 2.24h-41.58c-.467 0-.887-.14-1.26-.42a2.047 2.047 0 0 1-.42-1.26V4.68c0-.467.14-.84.42-1.12.373-.373.793-.56 1.26-.56Zm63.717 48.58c0-7.187 1.306-13.86 3.92-20.02 2.706-6.253 6.3-11.62 10.78-16.1 4.573-4.573 9.94-8.12 16.1-10.64 6.16-2.613 12.786-3.873 19.88-3.78 7.093.093 13.72 1.493 19.88 4.2 6.16 2.707 11.48 6.393 15.96 11.06 4.573 4.667 8.166 10.127 10.78 16.38 2.613 6.16 3.873 12.74 3.78 19.74-.094 7.093-1.494 13.72-4.2 19.88-2.707 6.16-6.394 11.527-11.06 16.1-4.574 4.573-9.94 8.167-16.1 10.78-6.16 2.52-12.787 3.78-19.88 3.78-7 0-13.58-1.307-19.74-3.92-6.067-2.707-11.34-6.347-15.82-10.92-4.48-4.667-7.98-10.127-10.5-16.38-2.52-6.253-3.78-12.973-3.78-20.16Zm17.92.7c0 4.573.886 8.913 2.66 13.02 1.773 4.107 4.153 7.7 7.14 10.78a33.575 33.575 0 0 0 10.36 7.28c3.92 1.773 8.12 2.66 12.6 2.66 4.386-.093 8.54-1.073 12.46-2.94 3.92-1.867 7.326-4.34 10.22-7.42 2.986-3.173 5.32-6.813 7-10.92 1.68-4.2 2.473-8.587 2.38-13.16 0-4.573-.887-8.913-2.66-13.02-1.774-4.107-4.154-7.653-7.14-10.64-2.987-3.08-6.487-5.507-10.5-7.28-3.92-1.773-8.074-2.66-12.46-2.66-4.387.093-8.54 1.073-12.46 2.94a30.948 30.948 0 0 0-10.22 7.42c-2.894 3.08-5.18 6.673-6.86 10.78-1.68 4.107-2.52 8.493-2.52 13.16ZM340.65 4.4c0-.467.14-.84.42-1.12.373-.373.793-.56 1.26-.56h73.92c.466 0 .84.187 1.12.56.373.28.56.653.56 1.12v20.58c0 1.307-.42 2.473-1.26 3.5l-22.12 28.98 31.64 41.3c.28.467.28.933 0 1.4-.187.373-.514.56-.98.56h-17.78c-1.867 0-3.407-.747-4.62-2.24l-30.66-39.9c-.654-.747-.654-1.447 0-2.1l27.58-35.98h-41.16v78.54c0 1.12-.607 1.68-1.82 1.68h-14.42c-.467 0-.887-.14-1.26-.42a2.047 2.047 0 0 1-.42-1.26V4.4ZM439.4 3h13.3c1.867 0 3.407.747 4.62 2.24l71.96 93.8c.373.373.42.793.14 1.26-.187.467-.56.7-1.12.7h-17.78c-1.867 0-3.407-.747-4.62-2.24l-24.22-31.64-24.36 31.64c-1.213 1.493-2.753 2.24-4.62 2.24h-13.3c-.467 0-.887-.14-1.26-.42a2.047 2.047 0 0 1-.42-1.26V4.68c0-.467.14-.84.42-1.12.373-.373.793-.56 1.26-.56ZM515 4.68c0-1.12.607-1.68 1.82-1.68h13.3c1.773 0 3.267.747 4.48 2.24L585 70.76V4.68c0-1.12.56-1.68 1.68-1.68h14.42c1.213 0 1.82.56 1.82 1.68v94.64c0 .467-.187.887-.56 1.26-.373.28-.793.42-1.26.42h-13.3c-1.867 0-3.407-.747-4.62-2.24l-50.26-65.52V71.6c0 .56-.28.933-.84 1.12-.56.187-1.027.047-1.4-.42l-14.42-18.76c-.84-1.027-1.26-2.193-1.26-3.5V4.68Zm-59.36 28.56v37.52L470.06 52l-14.42-18.76ZM618.347 4.4c0-.467.14-.84.42-1.12.374-.373.794-.56 1.26-.56h60.76c1.867 0 3.407.747 4.62 2.24l10.36 13.58c.374.467.42.933.14 1.4-.186.373-.56.56-1.12.56h-31.22v78.54c0 1.12-.56 1.68-1.68 1.68h-14.42c-1.12 0-1.68-.56-1.68-1.68V20.5h-25.76a2.05 2.05 0 0 1-1.26-.42 2.047 2.047 0 0 1-.42-1.26V4.4Z" fill="#ECE8E1"/></svg>