<svg width="181" height="23" viewBox="0 0 181 23" fill="none" xmlns="http://www.w3.org/2000/svg">
<path d="M0.19 1.36C0.19 1.26 0.22 1.18 0.28 1.12C0.36 1.04 0.45 0.999999 0.55 0.999999H7.24C8.68 0.999999 10.03 1.27 11.29 1.81C12.55 2.35 13.65 3.09 14.59 4.03C15.53 4.95 16.28 6.04 16.84 7.3C17.42 8.54 17.72 9.87 17.74 11.29C17.78 12.77 17.51 14.16 16.93 15.46C16.37 16.76 15.6 17.9 14.62 18.88C13.64 19.84 12.49 20.6 11.17 21.16C9.87 21.72 8.48 22 7 22H0.55C0.45 22 0.36 21.97 0.28 21.91C0.22 21.83 0.19 21.74 0.19 21.64V1.36ZM4.03 18.19H7.24C8.16 18.19 9.02 18.02 9.82 17.68C10.64 17.32 11.35 16.84 11.95 16.24C12.57 15.62 13.05 14.91 13.39 14.11C13.75 13.29 13.93 12.42 13.93 11.5C13.93 10.58 13.75 9.72 13.39 8.92C13.05 8.1 12.57 7.39 11.95 6.79C11.35 6.17 10.64 5.69 9.82 5.35C9.02 4.99 8.16 4.81 7.24 4.81H4.03V18.19ZM20.3852 11.41C20.3852 9.87 20.6652 8.44 21.2252 7.12C21.8052 5.78 22.5752 4.63 23.5352 3.67C24.5152 2.69 25.6652 1.93 26.9852 1.39C28.3052 0.829999 29.7252 0.559999 31.2452 0.579999C32.7652 0.599998 34.1852 0.899999 35.5052 1.48C36.8252 2.06 37.9652 2.85 38.9252 3.85C39.9052 4.85 40.6752 6.02 41.2352 7.36C41.7952 8.68 42.0652 10.09 42.0452 11.59C42.0252 13.11 41.7252 14.53 41.1452 15.85C40.5652 17.17 39.7752 18.32 38.7752 19.3C37.7952 20.28 36.6452 21.05 35.3252 21.61C34.0052 22.15 32.5852 22.42 31.0652 22.42C29.5652 22.42 28.1552 22.14 26.8352 21.58C25.5352 21 24.4052 20.22 23.4452 19.24C22.4852 18.24 21.7352 17.07 21.1952 15.73C20.6552 14.39 20.3852 12.95 20.3852 11.41ZM24.2252 11.56C24.2252 12.54 24.4152 13.47 24.7952 14.35C25.1752 15.23 25.6852 16 26.3252 16.66C26.9652 17.32 27.7052 17.84 28.5452 18.22C29.3852 18.6 30.2852 18.79 31.2452 18.79C32.1852 18.77 33.0752 18.56 33.9152 18.16C34.7552 17.76 35.4852 17.23 36.1052 16.57C36.7452 15.89 37.2452 15.11 37.6052 14.23C37.9652 13.33 38.1352 12.39 38.1152 11.41C38.1152 10.43 37.9252 9.5 37.5452 8.62C37.1652 7.74 36.6552 6.98 36.0152 6.34C35.3752 5.68 34.6252 5.16 33.7652 4.78C32.9252 4.4 32.0352 4.21 31.0952 4.21C30.1552 4.23 29.2652 4.44 28.4252 4.84C27.5852 5.22 26.8552 5.75 26.2352 6.43C25.6152 7.09 25.1252 7.86 24.7652 8.74C24.4052 9.62 24.2252 10.56 24.2252 11.56ZM41.605 0.939999H45.415C45.815 0.939999 46.145 1.1 46.405 1.42L57.205 15.46V1.3C57.205 1.2 57.235 1.12 57.295 1.06C57.375 0.979999 57.465 0.939999 57.565 0.939999H60.415C60.815 0.939999 61.145 1.1 61.405 1.42L72.175 15.46V1.3C72.175 1.2 72.215 1.12 72.295 1.06C72.375 0.979999 72.465 0.939999 72.565 0.939999H75.655C75.755 0.939999 75.835 0.979999 75.895 1.06C75.975 1.12 76.015 1.2 76.015 1.3V21.58C76.015 21.82 75.895 21.94 75.655 21.94H72.805C72.405 21.94 72.075 21.78 71.815 21.46L61.015 7.42V21.58C61.015 21.82 60.895 21.94 60.655 21.94H57.805C57.405 21.94 57.075 21.78 56.815 21.46L41.395 1.36C41.315 1.28 41.305 1.19 41.365 1.09C41.425 0.989999 41.505 0.939999 41.605 0.939999ZM80.3463 21.64V1.36C80.3463 1.26 80.3763 1.18 80.4363 1.12C80.5163 1.04 80.6063 0.999999 80.7063 0.999999H83.5563C83.9563 0.999999 84.2863 1.16 84.5463 1.48L95.3463 15.52V1.36C95.3463 1.12 95.4663 0.999999 95.7063 0.999999H98.7963C99.0363 0.999999 99.1563 1.12 99.1563 1.36V21.64C99.1563 21.88 99.0363 22 98.7963 22H95.9463C95.5463 22 95.2163 21.84 94.9563 21.52L84.1863 7.48V21.64C84.1863 21.88 84.0563 22 83.7963 22H80.7063C80.6063 22 80.5163 21.97 80.4363 21.91C80.3763 21.83 80.3463 21.74 80.3463 21.64ZM103.851 0.999999H106.941C107.201 0.999999 107.331 1.12 107.331 1.36V18.19H115.731C115.851 18.19 115.931 18.24 115.971 18.34C116.031 18.44 116.031 18.53 115.971 18.61L113.721 21.52C113.461 21.84 113.141 22 112.761 22H103.851C103.751 22 103.661 21.97 103.581 21.91C103.521 21.83 103.491 21.74 103.491 21.64V1.36C103.491 1.26 103.521 1.18 103.581 1.12C103.661 1.04 103.751 0.999999 103.851 0.999999ZM117.504 11.41C117.504 9.87 117.784 8.44 118.344 7.12C118.924 5.78 119.694 4.63 120.654 3.67C121.634 2.69 122.784 1.93 124.104 1.39C125.424 0.829999 126.844 0.559999 128.364 0.579999C129.884 0.599998 131.304 0.899999 132.624 1.48C133.944 2.06 135.084 2.85 136.044 3.85C137.024 4.85 137.794 6.02 138.354 7.36C138.914 8.68 139.184 10.09 139.164 11.59C139.144 13.11 138.844 14.53 138.264 15.85C137.684 17.17 136.894 18.32 135.894 19.3C134.914 20.28 133.764 21.05 132.444 21.61C131.124 22.15 129.704 22.42 128.184 22.42C126.684 22.42 125.274 22.14 123.954 21.58C122.654 21 121.524 20.22 120.564 19.24C119.604 18.24 118.854 17.07 118.314 15.73C117.774 14.39 117.504 12.95 117.504 11.41ZM121.344 11.56C121.344 12.54 121.534 13.47 121.914 14.35C122.294 15.23 122.804 16 123.444 16.66C124.084 17.32 124.824 17.84 125.664 18.22C126.504 18.6 127.404 18.79 128.364 18.79C129.304 18.77 130.194 18.56 131.034 18.16C131.874 17.76 132.604 17.23 133.224 16.57C133.864 15.89 134.364 15.11 134.724 14.23C135.084 13.33 135.254 12.39 135.234 11.41C135.234 10.43 135.044 9.5 134.664 8.62C134.284 7.74 133.774 6.98 133.134 6.34C132.494 5.68 131.744 5.16 130.884 4.78C130.044 4.4 129.154 4.21 128.214 4.21C127.274 4.23 126.384 4.44 125.544 4.84C124.704 5.22 123.974 5.75 123.354 6.43C122.734 7.09 122.244 7.86 121.884 8.74C121.524 9.62 121.344 10.56 121.344 11.56ZM138.514 21.58L153.934 1.48C154.194 1.16 154.524 0.999999 154.924 0.999999H157.774C158.014 0.999999 158.134 1.12 158.134 1.36V21.64C158.134 21.88 158.014 22 157.774 22H154.924C154.524 22 154.194 21.84 153.934 21.52L148.744 14.74L143.524 21.52C143.264 21.84 142.934 22 142.534 22H138.724C138.624 22 138.544 21.96 138.484 21.88C138.424 21.78 138.434 21.68 138.514 21.58ZM151.234 11.5L154.324 15.52V7.48L151.234 11.5ZM162.465 1.36C162.465 1.26 162.495 1.18 162.555 1.12C162.635 1.04 162.725 0.999999 162.825 0.999999H169.515C170.955 0.999999 172.305 1.27 173.565 1.81C174.825 2.35 175.925 3.09 176.865 4.03C177.805 4.95 178.555 6.04 179.115 7.3C179.695 8.54 179.995 9.87 180.015 11.29C180.055 12.77 179.785 14.16 179.205 15.46C178.645 16.76 177.875 17.9 176.895 18.88C175.915 19.84 174.765 20.6 173.445 21.16C172.145 21.72 170.755 22 169.275 22H162.825C162.725 22 162.635 21.97 162.555 21.91C162.495 21.83 162.465 21.74 162.465 21.64V1.36ZM166.305 18.19H169.515C170.435 18.19 171.295 18.02 172.095 17.68C172.915 17.32 173.625 16.84 174.225 16.24C174.845 15.62 175.325 14.91 175.665 14.11C176.025 13.29 176.205 12.42 176.205 11.5C176.205 10.58 176.025 9.72 175.665 8.92C175.325 8.1 174.845 7.39 174.225 6.79C173.625 6.17 172.915 5.69 172.095 5.35C171.295 4.99 170.435 4.81 169.515 4.81H166.305V18.19Z" fill="#121B26"/>
</svg>
