<svg width="12" height="12" viewBox="0 0 12 12" fill="none" xmlns="http://www.w3.org/2000/svg">
<g clip-path="url(#clip0_243_163)">
<path d="M11.1394 2.32603C10.746 2.50036 10.3234 2.61815 9.87909 2.67139C10.3375 2.39708 10.6805 1.96535 10.844 1.45675C10.4133 1.71259 9.94192 1.89266 9.45034 1.98916C9.11977 1.6362 8.68192 1.40225 8.20476 1.32364C7.72761 1.24503 7.23785 1.32615 6.81152 1.5544C6.38519 1.78266 6.04615 2.14528 5.84703 2.58597C5.64791 3.02666 5.59985 3.52076 5.71032 3.99156C4.83759 3.94774 3.98384 3.72091 3.20445 3.32578C2.42507 2.93065 1.73748 2.37605 1.1863 1.69799C0.997839 2.02308 0.889474 2.40001 0.889474 2.80143C0.889263 3.1628 0.978254 3.51864 1.14855 3.83737C1.31885 4.1561 1.56518 4.42787 1.8657 4.62856C1.51718 4.61747 1.17635 4.5233 0.87157 4.35388V4.38215C0.871535 4.88899 1.04685 5.38023 1.36778 5.77252C1.68871 6.16481 2.13547 6.43399 2.63227 6.53438C2.30896 6.62188 1.96999 6.63477 1.64096 6.57207C1.78113 7.00818 2.05416 7.38954 2.42184 7.66276C2.78951 7.93598 3.23342 8.08739 3.69143 8.09579C2.91394 8.70612 1.95376 9.03719 0.965329 9.03574C0.79024 9.03578 0.615298 9.02556 0.441406 9.00511C1.44472 9.6502 2.61264 9.99257 3.80544 9.99124C7.84323 9.99124 10.0506 6.64699 10.0506 3.74656C10.0506 3.65233 10.0482 3.55716 10.044 3.46293C10.4734 3.15243 10.844 2.76793 11.1385 2.32745L11.1394 2.32603Z" fill="#FF4654"/>
</g>
<defs>
<clipPath id="clip0_243_163">
<rect width="11.3077" height="11.3077" fill="white"/>
</clipPath>
</defs>
</svg>
