<svg width="12" height="12" viewBox="0 0 12 12" fill="none" xmlns="http://www.w3.org/2000/svg">
<g clip-path="url(#clip0_243_166)">
<path d="M5.65385 0C4.11953 0 3.9266 0.00706731 3.32376 0.0339231C2.72091 0.0621923 2.3103 0.156894 1.95058 0.296827C1.57325 0.438752 1.23147 0.661377 0.949139 0.949139C0.661554 1.23162 0.438956 1.57335 0.296827 1.95058C0.156894 2.3096 0.0614856 2.72091 0.0339231 3.32163C0.00706731 3.92589 0 4.11812 0 5.65455C0 7.18957 0.00706731 7.3818 0.0339231 7.98464C0.0621923 8.58678 0.156894 8.99739 0.296827 9.35712C0.441707 9.72886 0.634644 10.0441 0.949139 10.3586C1.26293 10.673 1.57813 10.8667 1.94987 11.0109C2.3103 11.1508 2.72021 11.2462 3.32234 11.2738C3.92589 11.3006 4.11812 11.3077 5.65385 11.3077C7.18957 11.3077 7.3811 11.3006 7.98464 11.2738C8.58607 11.2455 8.9981 11.1508 9.35782 11.0109C9.73491 10.8689 10.0764 10.6462 10.3586 10.3586C10.673 10.0441 10.866 9.72886 11.0109 9.35712C11.1501 8.99739 11.2455 8.58678 11.2738 7.98464C11.3006 7.3818 11.3077 7.18957 11.3077 5.65385C11.3077 4.11812 11.3006 3.92589 11.2738 3.32234C11.2455 2.72091 11.1501 2.3096 11.0109 1.95058C10.8688 1.57334 10.6462 1.2316 10.3586 0.949139C10.0763 0.661271 9.73451 0.438629 9.35712 0.296827C8.99668 0.156894 8.58537 0.0614856 7.98394 0.0339231C7.38039 0.00706731 7.18887 0 5.65243 0H5.65455H5.65385ZM5.14712 1.01911H5.65455C7.16413 1.01911 7.34293 1.02405 7.93871 1.05162C8.48996 1.07635 8.78961 1.16893 8.98891 1.24597C9.25252 1.34844 9.44122 1.47141 9.6391 1.6693C9.83699 1.86718 9.95925 2.05517 10.0617 2.31949C10.1395 2.51808 10.2313 2.81774 10.2561 3.36899C10.2836 3.96476 10.2893 4.14356 10.2893 5.65243C10.2893 7.1613 10.2836 7.34081 10.2561 7.93659C10.2313 8.48784 10.1388 8.78678 10.0617 8.98608C9.97108 9.23157 9.8264 9.45354 9.63839 9.63557C9.44051 9.83345 9.25252 9.95572 8.9882 10.0582C8.79032 10.1359 8.49066 10.2278 7.93871 10.2533C7.34293 10.2801 7.16413 10.2865 5.65455 10.2865C4.14498 10.2865 3.96547 10.2801 3.36969 10.2533C2.81844 10.2278 2.5195 10.1359 2.3202 10.0582C2.07461 9.96768 1.85243 9.82326 1.67 9.63557C1.48184 9.45325 1.33694 9.23108 1.24597 8.98538C1.16893 8.78678 1.07635 8.48713 1.05162 7.93588C1.02476 7.34011 1.01911 7.1613 1.01911 5.65102C1.01911 4.14144 1.02476 3.96335 1.05162 3.36757C1.07706 2.81632 1.16893 2.51667 1.24667 2.31737C1.34915 2.05376 1.47212 1.86506 1.67 1.66718C1.86789 1.46929 2.05588 1.34703 2.3202 1.24455C2.5195 1.16681 2.81844 1.07494 3.36969 1.0495C3.89126 1.02547 4.09338 1.0184 5.14712 1.01769V1.01911ZM8.67229 1.95764C8.5832 1.95764 8.49497 1.97519 8.41266 2.00929C8.33034 2.04339 8.25555 2.09336 8.19255 2.15636C8.12955 2.21936 8.07957 2.29416 8.04548 2.37647C8.01138 2.45878 7.99383 2.54701 7.99383 2.63611C7.99383 2.7252 8.01138 2.81343 8.04548 2.89574C8.07957 2.97806 8.12955 3.05285 8.19255 3.11585C8.25555 3.17885 8.33034 3.22883 8.41266 3.26292C8.49497 3.29702 8.5832 3.31457 8.67229 3.31457C8.85223 3.31457 9.0248 3.24309 9.15204 3.11585C9.27927 2.98861 9.35075 2.81605 9.35075 2.63611C9.35075 2.45617 9.27927 2.2836 9.15204 2.15636C9.0248 2.02912 8.85223 1.95764 8.67229 1.95764ZM5.65455 2.7506C5.26943 2.74459 4.88697 2.81525 4.52942 2.95847C4.17188 3.1017 3.84639 3.31462 3.57192 3.58484C3.29745 3.85506 3.07948 4.17718 2.9307 4.53245C2.78192 4.88772 2.7053 5.26903 2.7053 5.6542C2.7053 6.03936 2.78192 6.42068 2.9307 6.77595C3.07948 7.13122 3.29745 7.45334 3.57192 7.72356C3.84639 7.99378 4.17188 8.2067 4.52942 8.34992C4.88697 8.49315 5.26943 8.56381 5.65455 8.5578C6.41679 8.54591 7.14379 8.23477 7.67861 7.69153C8.21344 7.14829 8.51321 6.41653 8.51321 5.6542C8.51321 4.89187 8.21344 4.16011 7.67861 3.61687C7.14379 3.07363 6.41679 2.76249 5.65455 2.7506ZM5.65455 3.769C6.15445 3.769 6.63387 3.96758 6.98734 4.32106C7.34082 4.67453 7.5394 5.15395 7.5394 5.65385C7.5394 6.15374 7.34082 6.63316 6.98734 6.98664C6.63387 7.34012 6.15445 7.5387 5.65455 7.5387C5.15466 7.5387 4.67524 7.34012 4.32176 6.98664C3.96828 6.63316 3.7697 6.15374 3.7697 5.65385C3.7697 5.15395 3.96828 4.67453 4.32176 4.32106C4.67524 3.96758 5.15466 3.769 5.65455 3.769Z" fill="#FF4654"/>
</g>
<defs>
<clipPath id="clip0_243_166">
<rect width="11.3077" height="11.3077" fill="white"/>
</clipPath>
</defs>
</svg>
