<svg width="697" height="103" viewBox="0 0 697 103" fill="none" xmlns="http://www.w3.org/2000/svg">
<path d="M1.9 2.72H16.32C16.7867 2.72 17.2067 2.90666 17.58 3.28C17.9533 3.55999 18.14 3.93333 18.14 4.39999V70.48L68.4 4.95999C69.6133 3.46666 71.1533 2.72 73.02 2.72H90.8C91.36 2.72 91.7333 2.95333 91.92 3.42C92.2 3.88666 92.2 4.30666 91.92 4.68L19.82 98.48C18.6067 99.9733 17.0667 100.72 15.2 100.72H1.9C1.43333 100.72 1.01333 100.58 0.640001 100.3C0.360001 99.9267 0.220001 99.5067 0.220001 99.04V4.39999C0.220001 3.93333 0.360001 3.55999 0.640001 3.28C1.01333 2.90666 1.43333 2.72 1.9 2.72ZM46.3577 99.04L118.318 5.24C119.531 3.74666 121.071 2.99999 122.938 2.99999H136.238C137.358 2.99999 137.918 3.55999 137.918 4.68V99.32C137.918 100.44 137.358 101 136.238 101H122.938C121.071 101 119.531 100.253 118.318 98.76L94.0977 67.12L69.7377 98.76C68.5243 100.253 66.9843 101 65.1177 101H47.3377C46.871 101 46.4977 100.813 46.2177 100.44C45.9377 99.9733 45.9843 99.5067 46.3577 99.04ZM105.718 52L120.138 70.76V33.24L105.718 52ZM159.81 2.99999H174.23C175.443 2.99999 176.05 3.55999 176.05 4.68V83.22H215.25C215.81 83.22 216.183 83.4533 216.37 83.92C216.65 84.3867 216.65 84.8067 216.37 85.18L205.87 98.76C204.657 100.253 203.163 101 201.39 101H159.81C159.343 101 158.923 100.86 158.55 100.58C158.27 100.207 158.13 99.7867 158.13 99.32V4.68C158.13 4.21333 158.27 3.84 158.55 3.55999C158.923 3.18666 159.343 2.99999 159.81 2.99999ZM223.527 51.58C223.527 44.3933 224.833 37.72 227.447 31.56C230.153 25.3067 233.747 19.94 238.227 15.46C242.8 10.8867 248.167 7.34 254.327 4.81999C260.487 2.20666 267.113 0.946661 274.207 1.03999C281.3 1.13333 287.927 2.53333 294.087 5.24C300.247 7.94666 305.567 11.6333 310.047 16.3C314.62 20.9667 318.213 26.4267 320.827 32.68C323.44 38.84 324.7 45.42 324.607 52.42C324.513 59.5133 323.113 66.14 320.407 72.3C317.7 78.46 314.013 83.8267 309.347 88.4C304.773 92.9733 299.407 96.5667 293.247 99.18C287.087 101.7 280.46 102.96 273.367 102.96C266.367 102.96 259.787 101.653 253.627 99.04C247.56 96.3333 242.287 92.6933 237.807 88.12C233.327 83.4533 229.827 77.9933 227.307 71.74C224.787 65.4867 223.527 58.7667 223.527 51.58ZM241.447 52.28C241.447 56.8533 242.333 61.1933 244.107 65.3C245.88 69.4067 248.26 73 251.247 76.08C254.233 79.16 257.687 81.5867 261.607 83.36C265.527 85.1333 269.727 86.02 274.207 86.02C278.593 85.9267 282.747 84.9467 286.667 83.08C290.587 81.2133 293.993 78.74 296.887 75.66C299.873 72.4867 302.207 68.8467 303.887 64.74C305.567 60.54 306.36 56.1533 306.267 51.58C306.267 47.0067 305.38 42.6667 303.607 38.56C301.833 34.4533 299.453 30.9067 296.467 27.92C293.48 24.84 289.98 22.4133 285.967 20.64C282.047 18.8667 277.893 17.98 273.507 17.98C269.12 18.0733 264.967 19.0533 261.047 20.92C257.127 22.6933 253.72 25.1667 250.827 28.34C247.933 31.42 245.647 35.0133 243.967 39.12C242.287 43.2267 241.447 47.6133 241.447 52.28ZM340.65 4.39999C340.65 3.93333 340.79 3.55999 341.07 3.28C341.443 2.90666 341.863 2.72 342.33 2.72H416.25C416.716 2.72 417.09 2.90666 417.37 3.28C417.743 3.55999 417.93 3.93333 417.93 4.39999V24.98C417.93 26.2867 417.51 27.4533 416.67 28.48L394.55 57.46L426.19 98.76C426.47 99.2267 426.47 99.6933 426.19 100.16C426.003 100.533 425.676 100.72 425.21 100.72H407.43C405.563 100.72 404.023 99.9733 402.81 98.48L372.15 58.58C371.496 57.8333 371.496 57.1333 372.15 56.48L399.73 20.5H358.57V99.04C358.57 100.16 357.963 100.72 356.75 100.72H342.33C341.863 100.72 341.443 100.58 341.07 100.3C340.79 99.9267 340.65 99.5067 340.65 99.04V4.39999ZM439.4 2.99999H452.7C454.567 2.99999 456.107 3.74666 457.32 5.24L529.28 99.04C529.653 99.4133 529.7 99.8333 529.42 100.3C529.233 100.767 528.86 101 528.3 101H510.52C508.653 101 507.113 100.253 505.9 98.76L481.68 67.12L457.32 98.76C456.107 100.253 454.567 101 452.7 101H439.4C438.933 101 438.513 100.86 438.14 100.58C437.86 100.207 437.72 99.7867 437.72 99.32V4.68C437.72 4.21333 437.86 3.84 438.14 3.55999C438.513 3.18666 438.933 2.99999 439.4 2.99999ZM515 4.68C515 3.55999 515.607 2.99999 516.82 2.99999H530.12C531.893 2.99999 533.387 3.74666 534.6 5.24L585 70.76V4.68C585 3.55999 585.56 2.99999 586.68 2.99999H601.1C602.313 2.99999 602.92 3.55999 602.92 4.68V99.32C602.92 99.7867 602.733 100.207 602.36 100.58C601.987 100.86 601.567 101 601.1 101H587.8C585.933 101 584.393 100.253 583.18 98.76L532.92 33.24V71.6C532.92 72.16 532.64 72.5333 532.08 72.72C531.52 72.9067 531.053 72.7667 530.68 72.3L516.26 53.54C515.42 52.5133 515 51.3467 515 50.04V4.68ZM455.64 33.24V70.76L470.06 52L455.64 33.24ZM618.347 4.39999C618.347 3.93333 618.487 3.55999 618.767 3.28C619.141 2.90666 619.561 2.72 620.027 2.72H680.787C682.654 2.72 684.194 3.46666 685.407 4.95999L695.767 18.54C696.141 19.0067 696.187 19.4733 695.907 19.94C695.721 20.3133 695.347 20.5 694.787 20.5H663.567V99.04C663.567 100.16 663.007 100.72 661.887 100.72H647.467C646.347 100.72 645.787 100.16 645.787 99.04V20.5H620.027C619.561 20.5 619.141 20.36 618.767 20.08C618.487 19.7067 618.347 19.2867 618.347 18.82V4.39999Z" fill="#ECE8E1"/>
</svg>
