<svg width="12" height="12" fill="none" xmlns="http://www.w3.org/2000/svg"><g clip-path="url(#a)"><path d="M5.654 0C4.12 0 3.927.007 3.324.034 2.72.062 2.31.157 1.95.297 1.573.439 1.23.66.949.949a2.78 2.78 0 0 0-.652 1.002c-.14.359-.236.77-.263 1.37C.007 3.927 0 4.119 0 5.656c0 1.535.007 1.727.034 2.33.028.602.123 1.012.263 1.372.145.372.338.687.652 1.002a2.76 2.76 0 0 0 1 .652c.361.14.771.235 1.373.263.604.027.796.034 2.332.034 1.536 0 1.727-.007 2.33-.034.602-.028 1.014-.123 1.374-.263a2.77 2.77 0 0 0 1-.652c.315-.315.508-.63.653-1.002.14-.36.235-.77.263-1.372.027-.603.034-.795.034-2.331s-.007-1.728-.034-2.332c-.028-.601-.124-1.012-.263-1.371A2.774 2.774 0 0 0 10.359.95 2.765 2.765 0 0 0 9.357.297C8.997.157 8.585.06 7.984.034 7.38.007 7.189 0 5.652 0h.003-.001Zm-.507 1.02h.508c1.51 0 1.688.004 2.284.032.551.024.85.117 1.05.194.264.102.452.225.65.423.198.198.32.386.423.65.078.2.17.499.194 1.05.028.596.033.775.033 2.283 0 1.51-.005 1.689-.033 2.285-.025.55-.117.85-.194 1.05-.09.245-.236.467-.424.649-.197.197-.385.32-.65.422-.198.078-.497.17-1.05.195-.595.027-.774.034-2.283.034-1.51 0-1.69-.007-2.285-.034-.552-.025-.85-.117-1.05-.195a1.751 1.751 0 0 1-.65-.422 1.753 1.753 0 0 1-.424-.65c-.077-.2-.17-.499-.194-1.05-.027-.596-.033-.775-.033-2.285 0-1.51.006-1.688.033-2.283.025-.552.117-.851.195-1.05.102-.264.225-.453.423-.65.198-.199.386-.321.65-.423.2-.078.498-.17 1.05-.196.521-.024.723-.03 1.777-.031v.001Zm3.525.938a.678.678 0 1 0 0 1.356.678.678 0 0 0 0-1.356Zm-3.017.793a2.904 2.904 0 1 0-.091 5.807 2.904 2.904 0 0 0 .09-5.807Zm0 1.018a1.885 1.885 0 1 1 0 3.77 1.885 1.885 0 0 1 0-3.77Z" fill="#FF4654"/></g><defs><clipPath id="a"><path fill="#fff" d="M0 0h11.308v11.308H0z"/></clipPath></defs></svg>