<svg xmlns="http://www.w3.org/2000/svg" viewBox="0 0 172 172"><g fill="none" stroke-miterlimit="10" font-family="none" font-weight="none" font-size="none" text-anchor="none" style="mix-blend-mode:normal"><path d="M0 172V0h172v172z"/><path d="M86 6.88C42.342 6.88 6.88 42.342 6.88 86S42.342 165.12 86 165.12s79.12-35.462 79.12-79.12S129.658 6.88 86 6.88zm0 6.88c39.936 0 72.24 32.304 72.24 72.24 0 39.936-32.304 72.24-72.24 72.24-39.936 0-72.24-32.304-72.24-72.24 0-39.936 32.304-72.24 72.24-72.24zM61.772 44.84a3.508 3.508 0 0 0-2.432 1.022 3.445 3.445 0 0 0-1.008 2.446v.094l.296 75.559c0 1.236.658 2.378 1.733 2.983a3.423 3.423 0 0 0 3.44-.013l65.212-38.082a3.423 3.423 0 0 0 1.707-2.983 3.448 3.448 0 0 0-1.72-2.983L63.492 45.31a3.667 3.667 0 0 0-1.72-.47zm3.467 9.407L120.4 85.906 65.48 117.98zm0 0" fill="#ff0042"/></g></svg>