<svg width="57" height="43" fill="none" xmlns="http://www.w3.org/2000/svg"><path fill-rule="evenodd" clip-rule="evenodd" d="M37.764 0c9.617 1.525 15.158 13.256 15.49 17.268 1.111-1.256 1.469-3.331 1.073-6.225 2.038 1.722 2.63 2.853 2.669 6.956l.002.469L57 43c-3.373-1.24-7.592-2.258-12.384-2.968V12.85c0-4.418-3.525-10.405-6.852-12.851ZM.001 10.785c5.862 11.974 9.956 18.938 12.28 20.892v8.364C7.533 40.75 3.351 41.757 0 42.986l.001-32.2ZM29.54.39a54.64 54.64 0 0 0-2.115 14.022l-.012 1.201v23.295c-4.524.04-8.846.327-12.825.82V12.466c0-4.449-1.762-7.527-3.887-9.912 2.591.83 4.503 2.4 5.736 4.715 1.85 3.472.732 12.566 4.15 12.566 3.419 0 3.422-5.632 3.81-9.906.26-2.85 1.974-6.029 5.143-9.54Zm3.158 6.934c-.052 6.724.92 10.086 2.914 10.086 1.994 0 2.56-3.058 1.699-9.174 2.63 3.127 3.946 5.833 3.946 8.118v23.242a113.766 113.766 0 0 0-11.2-.682V15.49c0-3.613.88-6.336 2.641-8.168ZM4.682 3.166c3.678 2.141 5.782 4.558 6.313 7.25l.062.37-3.974 8.133c.433-4.36-.368-9.61-2.4-15.753Z" fill="#F8F8F8"/></svg>