<svg width="53" height="53" fill="none" xmlns="http://www.w3.org/2000/svg"><path fill-rule="evenodd" clip-rule="evenodd" d="M28.227 2.154c0 1.19-.966 2.155-2.158 2.155a2.156 2.156 0 0 1-2.158-2.155C23.91.964 24.877 0 26.069 0s2.158.965 2.158 2.154Zm6.042 8.187a2.587 2.587 0 0 1-2.59 2.586 2.587 2.587 0 0 1-2.59-2.586 2.588 2.588 0 0 1 2.59-2.585c1.43 0 2.59 1.157 2.59 2.585ZM21.32 12.065a1.725 1.725 0 1 0 0-3.447 1.724 1.724 0 1 0 0 3.447Zm16.112 5.469a13.6 13.6 0 0 1 2.765 8.239c0 7.552-6.133 13.674-13.698 13.674s-13.697-6.122-13.697-13.674a13.6 13.6 0 0 1 2.765-8.24L.172 5.171c-.575 1.724.259 7.067 3.021 9.48a475.977 475.977 0 0 0 3.511 3.03c1.19 1.02 2.196 1.881 2.963 2.571v3.017l-8.462-6.464c.288 2.155 1.466 6.997 4.056 9.152 1.614 1.343 3.04 2.362 3.862 2.95.233.167.417.299.544.394v3.447l-5.61-4.74c-.288 2.873 1.986 8.579 5.007 10.773 1.913 1.389 5.155 4.112 8.49 6.913 3.285 2.76 6.661 5.595 8.946 7.306 2.285-1.71 5.66-4.547 8.946-7.306 3.335-2.801 6.577-5.525 8.49-6.914 3.021-2.193 5.295-7.9 5.008-10.772l-5.611 4.74v-3.447c.575-.431 2.244-1.724 4.316-3.447 2.53-2.105 3.137-6.676 3.432-8.895l.02-.154-7.768 6.463v-3.016c.767-.69 1.772-1.551 2.963-2.571l.002-.002c1.04-.891 2.221-1.904 3.509-3.028 2.762-2.413 3.596-7.757 3.021-9.48L37.432 17.534ZM26.5 36.195c5.72 0 10.358-4.63 10.358-10.341 0-5.712-4.637-10.342-10.358-10.342-5.721 0-10.359 4.63-10.359 10.342 0 5.711 4.638 10.341 10.359 10.341Z" fill="#1F2326"/></svg>