<svg width="70" height="35" fill="none" xmlns="http://www.w3.org/2000/svg"><path fill-rule="evenodd" clip-rule="evenodd" d="M54.923 33.906V1.094h4.846l2.154 2.734 3.77-2.734L70 0v5.469l-4.308 3.28L70 13.126v6.562h-2.154l-5.923-3.28L70 25.156v7.109L64.615 35l-2.692-2.734-2.154 1.64h-4.846Zm-36.615.547V1.093h14.538v33.36h-3.77l-5.384-2.734v2.734h-5.384Zm18.308 0V1.093H42l2.154 7.657 1.616-7.656h5.384v33.36h-7L42 31.718l-1.615 2.734h-3.77ZM0 1.641l8.077 9.843L0 8.75v17.5c1.077.912 2.585 3.172 0 4.922v3.281h6.462l2.154-2.734 2.153 2.734h3.77V1.641H0Z" fill="#1F2326"/></svg>