<svg width="52" height="46" fill="none" xmlns="http://www.w3.org/2000/svg"><path fill-rule="evenodd" clip-rule="evenodd" d="M3.776 22.894 26 46l22.224-23.106c5.077-5.278 5.028-13.626-.11-18.845-5.316-5.399-14.038-5.399-19.353 0L26 6.853 23.24 4.05c-5.316-5.4-14.039-5.4-19.354 0-5.138 5.22-5.187 13.567-.11 18.845Zm33.226-2.457c-3.064-.15-5.662-1.335-7.793-3.552-2.132-2.217-3.197-4.86-3.197-7.932 0 3.071-1.07 5.716-3.209 7.932-2.139 2.217-4.74 3.401-7.805 3.552 2.018.091 3.868.662 5.552 1.714a11.535 11.535 0 0 1 3.994 4.176c.978 1.733 1.468 3.613 1.468 5.64 0-3.086 1.065-5.742 3.197-7.966 2.131-2.225 4.729-3.412 7.793-3.564Z" fill="#1F2326"/></svg>