<svg width="57" height="55" fill="none" xmlns="http://www.w3.org/2000/svg"><path fill-rule="evenodd" clip-rule="evenodd" d="M11.616 36.667c4.257 6.848 9.047 10.272 14.37 10.272V55l-1.597-5.642c-4.79-.806-10.379-2.419-15.168-11.285l2.395-1.406Zm33.768 0 2.395 1.406c-4.79 8.866-10.378 10.478-15.168 11.285L31.015 55v-8.06c5.322 0 10.112-3.425 14.37-10.273ZM28.5 5l6.706 13.333h-3.353L28.5 40l-3.353-21.667h-3.353L28.5 5Zm-6.706 15 1.677 8.333H11.735l5.516 1.6C10.13 32.051 4.378 34.851 0 38.333a57.098 57.098 0 0 1 8.74-9.643l-7.064-7.023 1.45.72 8.226 4.09.043.02c3.17-2.46 6.636-4.626 10.4-6.497Zm13.412 0C44.147 24.445 51.412 30.555 57 38.333c-4.378-3.482-10.129-6.282-17.251-8.4l5.516-1.6H33.529L35.206 20ZM23.47 0v10l-5.03 8.333h-5.03L18.442 10l5.03-10Zm10.058 0 5.03 10 5.03 8.333h-5.03L33.529 10V0Z" fill="#F8F8F8"/></svg>